<mxfile host="app.diagrams.net" modified="2021-09-20T17:40:47.967Z" agent="5.0 (Windows NT 10.0; Win64; x64) AppleWebKit/537.36 (KHTML, like Gecko) Chrome/86.0.4240.75 Safari/537.36" etag="5EWEhQgHqH_zObFvH5kx" version="15.1.4" type="github" pages="6">
  <diagram id="1vZ9cfh2TAxz5ftT0Kra" name="Page-1">
    <mxGraphModel dx="1181" dy="520" grid="1" gridSize="10" guides="1" tooltips="1" connect="1" arrows="1" fold="1" page="1" pageScale="1" pageWidth="827" pageHeight="1169" math="0" shadow="0">
      <root>
        <mxCell id="0" />
        <mxCell id="1" parent="0" />
        <mxCell id="cbIQ338BTW4LuEnU5a_4-2" value="" style="html=1;verticalLabelPosition=bottom;labelBackgroundColor=#ffffff;verticalAlign=top;shadow=0;dashed=0;strokeWidth=1;shape=mxgraph.ios7.misc.iphone;strokeColor=#c0c0c0;" parent="1" vertex="1">
          <mxGeometry x="213" y="40" width="237" height="510" as="geometry" />
        </mxCell>
        <mxCell id="cbIQ338BTW4LuEnU5a_4-3" value="Título da página" style="text;html=1;resizable=0;autosize=1;align=center;verticalAlign=middle;points=[];fillColor=none;strokeColor=none;rounded=0;strokeWidth=2;horizontal=1;spacing=9;fontSize=14;" parent="1" vertex="1">
          <mxGeometry x="266.5" y="120" width="130" height="40" as="geometry" />
        </mxCell>
        <mxCell id="cbIQ338BTW4LuEnU5a_4-4" value="Imagem" style="whiteSpace=wrap;html=1;aspect=fixed;fontSize=14;strokeWidth=2;align=center;" parent="1" vertex="1">
          <mxGeometry x="246.5" y="180" width="170" height="170" as="geometry" />
        </mxCell>
        <mxCell id="cbIQ338BTW4LuEnU5a_4-5" value="Entrar" style="rounded=1;whiteSpace=wrap;html=1;fontSize=14;strokeWidth=2;align=center;" parent="1" vertex="1">
          <mxGeometry x="250" y="380" width="160" height="30" as="geometry" />
        </mxCell>
        <mxCell id="cbIQ338BTW4LuEnU5a_4-6" value="Cadastre-se" style="rounded=1;whiteSpace=wrap;html=1;fontSize=14;strokeWidth=2;align=center;" parent="1" vertex="1">
          <mxGeometry x="250" y="420" width="160" height="30" as="geometry" />
        </mxCell>
        <mxCell id="-1gddthg7Ik9ki0cdV_o-2" value="" style="shape=image;imageAspect=0;aspect=fixed;verticalLabelPosition=bottom;verticalAlign=top;image=https://www.bookshelfapp.info/images/screenshots/1.png;" vertex="1" parent="1">
          <mxGeometry x="500" y="50" width="292" height="520" as="geometry" />
        </mxCell>
      </root>
    </mxGraphModel>
  </diagram>
  <diagram id="tO5ecJLLS9KuBMG-kFEc" name="Page-2">
    <mxGraphModel dx="814" dy="359" grid="1" gridSize="10" guides="1" tooltips="1" connect="1" arrows="1" fold="1" page="1" pageScale="1" pageWidth="827" pageHeight="1169" math="0" shadow="0">
      <root>
        <mxCell id="TJBLfhvohseIE7fdDAho-0" />
        <mxCell id="TJBLfhvohseIE7fdDAho-1" parent="TJBLfhvohseIE7fdDAho-0" />
        <mxCell id="M4I-WdsfyTUIsJcVSH2A-0" value="" style="html=1;verticalLabelPosition=bottom;labelBackgroundColor=#ffffff;verticalAlign=top;shadow=0;dashed=0;strokeWidth=1;shape=mxgraph.ios7.misc.iphone;strokeColor=#c0c0c0;" vertex="1" parent="TJBLfhvohseIE7fdDAho-1">
          <mxGeometry x="108.25" y="40" width="237" height="510" as="geometry" />
        </mxCell>
        <mxCell id="M4I-WdsfyTUIsJcVSH2A-1" value="" style="shape=image;verticalLabelPosition=bottom;labelBackgroundColor=#ffffff;verticalAlign=top;aspect=fixed;imageAspect=0;image=data:image/jpeg,/9j/4AAQSkZJRgABAQEAYABgAAD/4RD6RXhpZgAATU0AKgAAAAgABAE7AAIAAAAQAAAISodpAAQAAAABAAAIWpydAAEAAAAgAAAQ0uocAAcAAAgMAAAAPgAAAAAc6gAAAAgAAAAAAAAAAAAAAAAAAAAAAAAAAAAAAAAAAAAAAAAAAAAAAAAAAAAAAAAAAAAAAAAAAAAAAAAAAAAAAAAAAAAAAAAAAAAAAAAAAAAAAAAAAAAAAAAAAAAAAAAAAAAAAAAAAAAAAAAAAAAAAAAAAAAAAAAAAAAAAAAAAAAAAAAAAAAAAAAAAAAAAAAAAAAAAAAAAAAAAAAAAAAAAAAAAAAAAAAAAAAAAAAAAAAAAAAAAAAAAAAAAAAAAAAAAAAAAAAAAAAAAAAAAAAAAAAAAAAAAAAAAAAAAAAAAAAAAAAAAAAAAAAAAAAAAAAAAAAAAAAAAAAAAAAAAAAAAAAAAAAAAAAAAAAAAAAAAAAAAAAAAAAAAAAAAAAAAAAAAAAAAAAAAAAAAAAAAAAAAAAAAAAAAAAAAAAAAAAAAAAAAAAAAAAAAAAAAAAAAAAAAAAAAAAAAAAAAAAAAAAAAAAAAAAAAAAAAAAAAAAAAAAAAAAAAAAAAAAAAAAAAAAAAAAAAAAAAAAAAAAAAAAAAAAAAAAAAAAAAAAAAAAAAAAAAAAAAAAAAAAAAAAAAAAAAAAAAAAAAAAAAAAAAAAAAAAAAAAAAAAAAAAAAAAAAAAAAAAAAAAAAAAAAAAAAAAAAAAAAAAAAAAAAAAAAAAAAAAAAAAAAAAAAAAAAAAAAAAAAAAAAAAAAAAAAAAAAAAAAAAAAAAAAAAAAAAAAAAAAAAAAAAAAAAAAAAAAAAAAAAAAAAAAAAAAAAAAAAAAAAAAAAAAAAAAAAAAAAAAAAAAAAAAAAAAAAAAAAAAAAAAAAAAAAAAAAAAAAAAAAAAAAAAAAAAAAAAAAAAAAAAAAAAAAAAAAAAAAAAAAAAAAAAAAAAAAAAAAAAAAAAAAAAAAAAAAAAAAAAAAAAAAAAAAAAAAAAAAAAAAAAAAAAAAAAAAAAAAAAAAAAAAAAAAAAAAAAAAAAAAAAAAAAAAAAAAAAAAAAAAAAAAAAAAAAAAAAAAAAAAAAAAAAAAAAAAAAAAAAAAAAAAAAAAAAAAAAAAAAAAAAAAAAAAAAAAAAAAAAAAAAAAAAAAAAAAAAAAAAAAAAAAAAAAAAAAAAAAAAAAAAAAAAAAAAAAAAAAAAAAAAAAAAAAAAAAAAAAAAAAAAAAAAAAAAAAAAAAAAAAAAAAAAAAAAAAAAAAAAAAAAAAAAAAAAAAAAAAAAAAAAAAAAAAAAAAAAAAAAAAAAAAAAAAAAAAAAAAAAAAAAAAAAAAAAAAAAAAAAAAAAAAAAAAAAAAAAAAAAAAAAAAAAAAAAAAAAAAAAAAAAAAAAAAAAAAAAAAAAAAAAAAAAAAAAAAAAAAAAAAAAAAAAAAAAAAAAAAAAAAAAAAAAAAAAAAAAAAAAAAAAAAAAAAAAAAAAAAAAAAAAAAAAAAAAAAAAAAAAAAAAAAAAAAAAAAAAAAAAAAAAAAAAAAAAAAAAAAAAAAAAAAAAAAAAAAAAAAAAAAAAAAAAAAAAAAAAAAAAAAAAAAAAAAAAAAAAAAAAAAAAAAAAAAAAAAAAAAAAAAAAAAAAAAAAAAAAAAAAAAAAAAAAAAAAAAAAAAAAAAAAAAAAAAAAAAAAAAAAAAAAAAAAAAAAAAAAAAAAAAAAAAAAAAAAAAAAAAAAAAAAAAAAAAAAAAAAAAAAAAAAAAAAAAAAAAAAAAAAAAAAAAAAAAAAAAAAAAAAAAAAAAAAAAAAAAAAAAAAAAAAAAAAAAAAAAAAAAAAAAAAAAAAAAAAAAAAAAAAAAAAAAAAAAAAAAAAAAAAAAAAAAAAAAAAAAAAAAAAAAAAAAAAAAAAAAAAAAAAAAAAAAAAAAAAAAAAAAAAAAAAAAAAAAAAAAAAAAAAAAAAAAAAAAAAAAAAAAAAAAAAAAAAAAAAAAAAAAAAAAAAAAAAAAAAAAAAAAAAAAAAAAAAAAAAAAAAAAAAAAAAAAAAAAAAAAAAAAAAAAAAAAAAAAAAAAAAAAAAAAAAAAAAAAAAAAAAAAAAAAAAAAAAAAAAAAAAAAAAAAAAAAAAAAAAAAAAAAAAAAAAAAAAAAAAAAAAAAAAAAAAAAAAAAAAAAAAAAAAAAAAAAAAAAAAAAAAAAAAAAAAAAAAAAAAAAAAAAAAAAAAAAAAAAAAAAAAAAAAAAAAAAAAAAAAAAAAAAAAAAAAAAAAAAAAAAAAAAAAAAAAAAAAAAAAAAAAAAAAAAAAAAAAAAAAAAAAAAAAAAAAAAAAAAAAAAAAAAAAAAAAAAAAAAAAAAAAAAAAAAAAAAAAAAAAAAAAAAAAAAAAAAAAAAAAAAAAAAAAAAAAAAAAAAAAAAAAAAAAAAAAAAAAAAAAAAAAAAAAAAAAAAAAAAAAAAAAAAAAAAAAAAAAAAAAAAAAAAAAAAAAAAAAAAAAAAAAAAAAAAAAAAAAAAAAAAAAAAAAAAAAAAAAAAAAAAAAAAAAAAAAAAAAAAAAAAAAAAAAAAAAAAAAAAAAAAAAAAAAAAAAAAAAAAAAAAAAAAAAAAAAAAAAAAAAAAAAAAAAAAAAAAAAAAAAAAAAAAAAAAAAAAAAAAAAAAAAAAAAAAAAAAAAAAAAAAAAAAAAAAAAAAAAAAAAAAAAAAAAAAAAAAAAAAAAAAAAAAAAAAAAAAAAAAAAAAAAAAAAAAAAAAAAAAAAAAAAAAAAAAAAAAAAAAAAAAAAAAAAAAAAAAAAAAAAAAAAAAAAAAAAAAAAAAAAAAAAAAAAAAAAAAAAAAAAAAAAAAAAElzYWFjIE5hY2ltZW50bwAABZADAAIAAAAUAAAQqJAEAAIAAAAUAAAQvJKRAAIAAAADNzgAAJKSAAIAAAADNzgAAOocAAcAAAgMAAAInAAAAAAc6gAAAAgAAAAAAAAAAAAAAAAAAAAAAAAAAAAAAAAAAAAAAAAAAAAAAAAAAAAAAAAAAAAAAAAAAAAAAAAAAAAAAAAAAAAAAAAAAAAAAAAAAAAAAAAAAAAAAAAAAAAAAAAAAAAAAAAAAAAAAAAAAAAAAAAAAAAAAAAAAAAAAAAAAAAAAAAAAAAAAAAAAAAAAAAAAAAAAAAAAAAAAAAAAAAAAAAAAAAAAAAAAAAAAAAAAAAAAAAAAAAAAAAAAAAAAAAAAAAAAAAAAAAAAAAAAAAAAAAAAAAAAAAAAAAAAAAAAAAAAAAAAAAAAAAAAAAAAAAAAAAAAAAAAAAAAAAAAAAAAAAAAAAAAAAAAAAAAAAAAAAAAAAAAAAAAAAAAAAAAAAAAAAAAAAAAAAAAAAAAAAAAAAAAAAAAAAAAAAAAAAAAAAAAAAAAAAAAAAAAAAAAAAAAAAAAAAAAAAAAAAAAAAAAAAAAAAAAAAAAAAAAAAAAAAAAAAAAAAAAAAAAAAAAAAAAAAAAAAAAAAAAAAAAAAAAAAAAAAAAAAAAAAAAAAAAAAAAAAAAAAAAAAAAAAAAAAAAAAAAAAAAAAAAAAAAAAAAAAAAAAAAAAAAAAAAAAAAAAAAAAAAAAAAAAAAAAAAAAAAAAAAAAAAAAAAAAAAAAAAAAAAAAAAAAAAAAAAAAAAAAAAAAAAAAAAAAAAAAAAAAAAAAAAAAAAAAAAAAAAAAAAAAAAAAAAAAAAAAAAAAAAAAAAAAAAAAAAAAAAAAAAAAAAAAAAAAAAAAAAAAAAAAAAAAAAAAAAAAAAAAAAAAAAAAAAAAAAAAAAAAAAAAAAAAAAAAAAAAAAAAAAAAAAAAAAAAAAAAAAAAAAAAAAAAAAAAAAAAAAAAAAAAAAAAAAAAAAAAAAAAAAAAAAAAAAAAAAAAAAAAAAAAAAAAAAAAAAAAAAAAAAAAAAAAAAAAAAAAAAAAAAAAAAAAAAAAAAAAAAAAAAAAAAAAAAAAAAAAAAAAAAAAAAAAAAAAAAAAAAAAAAAAAAAAAAAAAAAAAAAAAAAAAAAAAAAAAAAAAAAAAAAAAAAAAAAAAAAAAAAAAAAAAAAAAAAAAAAAAAAAAAAAAAAAAAAAAAAAAAAAAAAAAAAAAAAAAAAAAAAAAAAAAAAAAAAAAAAAAAAAAAAAAAAAAAAAAAAAAAAAAAAAAAAAAAAAAAAAAAAAAAAAAAAAAAAAAAAAAAAAAAAAAAAAAAAAAAAAAAAAAAAAAAAAAAAAAAAAAAAAAAAAAAAAAAAAAAAAAAAAAAAAAAAAAAAAAAAAAAAAAAAAAAAAAAAAAAAAAAAAAAAAAAAAAAAAAAAAAAAAAAAAAAAAAAAAAAAAAAAAAAAAAAAAAAAAAAAAAAAAAAAAAAAAAAAAAAAAAAAAAAAAAAAAAAAAAAAAAAAAAAAAAAAAAAAAAAAAAAAAAAAAAAAAAAAAAAAAAAAAAAAAAAAAAAAAAAAAAAAAAAAAAAAAAAAAAAAAAAAAAAAAAAAAAAAAAAAAAAAAAAAAAAAAAAAAAAAAAAAAAAAAAAAAAAAAAAAAAAAAAAAAAAAAAAAAAAAAAAAAAAAAAAAAAAAAAAAAAAAAAAAAAAAAAAAAAAAAAAAAAAAAAAAAAAAAAAAAAAAAAAAAAAAAAAAAAAAAAAAAAAAAAAAAAAAAAAAAAAAAAAAAAAAAAAAAAAAAAAAAAAAAAAAAAAAAAAAAAAAAAAAAAAAAAAAAAAAAAAAAAAAAAAAAAAAAAAAAAAAAAAAAAAAAAAAAAAAAAAAAAAAAAAAAAAAAAAAAAAAAAAAAAAAAAAAAAAAAAAAAAAAAAAAAAAAAAAAAAAAAAAAAAAAAAAAAAAAAAAAAAAAAAAAAAAAAAAAAAAAAAAAAAAAAAAAAAAAAAAAAAAAAAAAAAAAAAAAAAAAAAAAAAAAAAAAAAAAAAAAAAAAAAAAAAAAAAAAAAAAAAAAAAAAAAAAAAAAAAAAAAAAAAAAAAAAAAAAAAAAAAAAAAAAAAAAAAAAAAAAAAAAAAAAAAAAAAAAAAAAAAAAAAAAAAAAAAAAAAAAAAAAAAAAAAAAAAAAAAAAAAAAAAAAAAAAAAAAAAAAAAAAAAAAAAAAAAAAAAAAAAAAAAAAAAAAAAAAAAAAAAAAAAAAAAAAAAAAAAAAAAAAAAAAAAAAAAAAAAAAAAAAAAAAAAAAAAAAAAAAAAAAAAAAAAAAAAAAAAAAAAAAAAAAAAAAAAAAAAAAAAAAAAAAAAAAAAAAAAAAAAAAAAAAAAAAAAAAAAAAAAAAAAAAAAAAAAAAAAAAAAAAAAAAAAAAAAAAAAAAAAAAAAAAAAAAAAAAAAAAAAAAAAAAAAAAAAAAAAAAAAAAAAAAAAAAAAAAAAAAAAAAAAAAAAAAAAAAAAAAAAAAAAAAAAAAAAAAAAAAAAAAAAAAAAAAAAAAAAAAAAAAAAAAAAAAAAAAAAAAAAAAAAAAAAAAAAAAAAAAAAAAAAAAAAAAAAAAAAAAAAAAAAAAAAAAAAAAAAAAAAAAAAAAAAAAAAAAAAAAAAAAAAAAAAAAAAAAAAAAAAAAAAAAAAAAAAAAAAAAAAAAAAAAAAAAAAAAAAAAAAAAAAAAAAAAAAAAAAAAAAAAAAAAAAAAAAAAAAAAAAAAAAAAAAAAAAAAAAAAAAAAAAAAAAAAAAAAAAAAAAAAAAAAAAAAAAAAAAAAAAAAAAAAAAAAAAAAAAAAAAAAAAAAAAAAAAAAAAAAAAADIwMjE6MDk6MjAgMTQ6MDY6MDEAMjAyMTowOToyMCAxNDowNjowMQAAAEkAcwBhAGEAYwAgAE4AYQBjAGkAbQBlAG4AdABvAAAA/+ELImh0dHA6Ly9ucy5hZG9iZS5jb20veGFwLzEuMC8APD94cGFja2V0IGJlZ2luPSfvu78nIGlkPSdXNU0wTXBDZWhpSHpyZVN6TlRjemtjOWQnPz4NCjx4OnhtcG1ldGEgeG1sbnM6eD0iYWRvYmU6bnM6bWV0YS8iPjxyZGY6UkRGIHhtbG5zOnJkZj0iaHR0cDovL3d3dy53My5vcmcvMTk5OS8wMi8yMi1yZGYtc3ludGF4LW5zIyI+PHJkZjpEZXNjcmlwdGlvbiByZGY6YWJvdXQ9InV1aWQ6ZmFmNWJkZDUtYmEzZC0xMWRhLWFkMzEtZDMzZDc1MTgyZjFiIiB4bWxuczpkYz0iaHR0cDovL3B1cmwub3JnL2RjL2VsZW1lbnRzLzEuMS8iLz48cmRmOkRlc2NyaXB0aW9uIHJkZjphYm91dD0idXVpZDpmYWY1YmRkNS1iYTNkLTExZGEtYWQzMS1kMzNkNzUxODJmMWIiIHhtbG5zOnhtcD0iaHR0cDovL25zLmFkb2JlLmNvbS94YXAvMS4wLyI+PHhtcDpDcmVhdGVEYXRlPjIwMjEtMDktMjBUMTQ6MDY6MDEuNzc5PC94bXA6Q3JlYXRlRGF0ZT48L3JkZjpEZXNjcmlwdGlvbj48cmRmOkRlc2NyaXB0aW9uIHJkZjphYm91dD0idXVpZDpmYWY1YmRkNS1iYTNkLTExZGEtYWQzMS1kMzNkNzUxODJmMWIiIHhtbG5zOmRjPSJodHRwOi8vcHVybC5vcmcvZGMvZWxlbWVudHMvMS4xLyI+PGRjOmNyZWF0b3I+PHJkZjpTZXEgeG1sbnM6cmRmPSJodHRwOi8vd3d3LnczLm9yZy8xOTk5LzAyLzIyLXJkZi1zeW50YXgtbnMjIj48cmRmOmxpPklzYWFjIE5hY2ltZW50bzwvcmRmOmxpPjwvcmRmOlNlcT4NCgkJCTwvZGM6Y3JlYXRvcj48L3JkZjpEZXNjcmlwdGlvbj48L3JkZjpSREY+PC94OnhtcG1ldGE+DQogICAgICAgICAgICAgICAgICAgICAgICAgICAgICAgICAgICAgICAgICAgICAgICAgICAgICAgICAgICAgICAgICAgICAgICAgICAgICAgICAgICAgICAgICAgICAgICAgICAgCiAgICAgICAgICAgICAgICAgICAgICAgICAgICAgICAgICAgICAgICAgICAgICAgICAgICAgICAgICAgICAgICAgICAgICAgICAgICAgICAgICAgICAgICAgICAgICAgICAgICAKICAgICAgICAgICAgICAgICAgICAgICAgICAgICAgICAgICAgICAgICAgICAgICAgICAgICAgICAgICAgICAgICAgICAgICAgICAgICAgICAgICAgICAgICAgICAgICAgICAgIAogICAgICAgICAgICAgICAgICAgICAgICAgICAgICAgICAgICAgICAgICAgICAgICAgICAgICAgICAgICAgICAgICAgICAgICAgICAgICAgICAgICAgICAgICAgICAgICAgICAgCiAgICAgICAgICAgICAgICAgICAgICAgICAgICAgICAgICAgICAgICAgICAgICAgICAgICAgICAgICAgICAgICAgICAgICAgICAgICAgICAgICAgICAgICAgICAgICAgICAgICAKICAgICAgICAgICAgICAgICAgICAgICAgICAgICAgICAgICAgICAgICAgICAgICAgICAgICAgICAgICAgICAgICAgICAgICAgICAgICAgICAgICAgICAgICAgICAgICAgICAgIAogICAgICAgICAgICAgICAgICAgICAgICAgICAgICAgICAgICAgICAgICAgICAgICAgICAgICAgICAgICAgICAgICAgICAgICAgICAgICAgICAgICAgICAgICAgICAgICAgICAgCiAgICAgICAgICAgICAgICAgICAgICAgICAgICAgICAgICAgICAgICAgICAgICAgICAgICAgICAgICAgICAgICAgICAgICAgICAgICAgICAgICAgICAgICAgICAgICAgICAgICAKICAgICAgICAgICAgICAgICAgICAgICAgICAgICAgICAgICAgICAgICAgICAgICAgICAgICAgICAgICAgICAgICAgICAgICAgICAgICAgICAgICAgICAgICAgICAgICAgICAgIAogICAgICAgICAgICAgICAgICAgICAgICAgICAgICAgICAgICAgICAgICAgICAgICAgICAgICAgICAgICAgICAgICAgICAgICAgICAgICAgICAgICAgICAgICAgICAgICAgICAgCiAgICAgICAgICAgICAgICAgICAgICAgICAgICAgICAgICAgICAgICAgICAgICAgICAgICAgICAgICAgICAgICAgICAgICAgICAgICAgICAgICAgICAgICAgICAgICAgICAgICAKICAgICAgICAgICAgICAgICAgICAgICAgICAgICAgICAgICAgICAgICAgICAgICAgICAgICAgICAgICAgICAgICAgICAgICAgICAgICAgICAgICAgICAgICAgICAgICAgICAgIAogICAgICAgICAgICAgICAgICAgICAgICAgICAgICAgICAgICAgICAgICAgICAgICAgICAgICAgICAgICAgICAgICAgICAgICAgICAgICAgICAgICAgICAgICAgICAgICAgICAgCiAgICAgICAgICAgICAgICAgICAgICAgICAgICAgICAgICAgICAgICAgICAgICAgICAgICAgICAgICAgICAgICAgICAgICAgICAgICAgICAgICAgICAgICAgICAgICAgICAgICAKICAgICAgICAgICAgICAgICAgICAgICAgICAgICAgICAgICAgICAgICAgICAgICAgICAgICAgICAgICAgICAgICAgICAgICAgICAgICAgICAgICAgICAgICAgICAgICAgICAgIAogICAgICAgICAgICAgICAgICAgICAgICAgICAgICAgICAgICAgICAgICAgICAgICAgICAgICAgICAgICAgICAgICAgICAgICAgICAgICAgICAgICAgICAgICAgICAgICAgICAgCiAgICAgICAgICAgICAgICAgICAgICAgICAgICAgICAgICAgICAgICAgICAgICAgICAgICAgICAgICAgICAgICAgICAgICAgICAgICAgICAgICAgICAgICAgICAgICAgICAgICAKICAgICAgICAgICAgICAgICAgICAgICAgICAgICAgICAgICAgICAgICAgICAgICAgICAgICAgICAgICAgICAgICAgICAgICAgICAgICAgICAgICAgICAgICAgICAgICAgICAgIAogICAgICAgICAgICAgICAgICAgICAgICAgICAgICAgICAgICAgICAgICAgICAgICAgICAgICAgICAgICAgICAgICAgICAgICAgICAgICAgICAgICAgICAgICAgICAgICAgICAgCiAgICAgICAgICAgICAgICAgICAgICAgICAgICAgICAgICAgICAgICAgICAgICAgICAgICAgICAgICAgICAgICAgICAgICAgICAgICAgICAgICAgICAgICAgICAgICAgICAgICAKICAgICAgICAgICAgICAgICAgICAgICAgICAgIDw/eHBhY2tldCBlbmQ9J3cnPz7/2wBDAAcFBQYFBAcGBQYIBwcIChELCgkJChUPEAwRGBUaGRgVGBcbHichGx0lHRcYIi4iJSgpKywrGiAvMy8qMicqKyr/2wBDAQcICAoJChQLCxQqHBgcKioqKioqKioqKioqKioqKioqKioqKioqKioqKioqKioqKioqKioqKioqKioqKioqKir/wAARCALeAZ0DASIAAhEBAxEB/8QAHwAAAQUBAQEBAQEAAAAAAAAAAAECAwQFBgcICQoL/8QAtRAAAgEDAwIEAwUFBAQAAAF9AQIDAAQRBRIhMUEGE1FhByJxFDKBkaEII0KxwRVS0fAkM2JyggkKFhcYGRolJicoKSo0NTY3ODk6Q0RFRkdISUpTVFVWV1hZWmNkZWZnaGlqc3R1dnd4eXqDhIWGh4iJipKTlJWWl5iZmqKjpKWmp6ipqrKztLW2t7i5usLDxMXGx8jJytLT1NXW19jZ2uHi4+Tl5ufo6erx8vP09fb3+Pn6/8QAHwEAAwEBAQEBAQEBAQAAAAAAAAECAwQFBgcICQoL/8QAtREAAgECBAQDBAcFBAQAAQJ3AAECAxEEBSExBhJBUQdhcRMiMoEIFEKRobHBCSMzUvAVYnLRChYkNOEl8RcYGRomJygpKjU2Nzg5OkNERUZHSElKU1RVVldYWVpjZGVmZ2hpanN0dXZ3eHl6goOEhYaHiImKkpOUlZaXmJmaoqOkpaanqKmqsrO0tba3uLm6wsPExcbHyMnK0tPU1dbX2Nna4uPk5ebn6Onq8vP09fb3+Pn6/9oADAMBAAIRAxEAPwD6Rrm/EPjrSvDWpRWF/HdSTyxiRRBGG4JIHcc8GukrzHxw9zYfES01SHTLm9MNhiHykJUSFnGSccYBJ+uKAOw8M+MNN8Vi5/sxZ1NsV3iZAvXOMYJ9DW9XAfDmzlg1nX7k2clpDdPFIiOOhO4sAfYn8sV39ABRRRQAUUUUAFFFFABRRRQAUUUUAFFFFABRRRQAUUUUAFFFFABRRRQAUUUUAFFFFABRRRQAUUUUAFFFFABRRRQAUUUUAFFFFABRRRQAUUUUAFFFFACO6xxs8jBUUZZmOAB61W0/VLLVYpJdNuY7mOKQxM8Ryu4AEjPQ9R0qy6LJGySKHRhhlYZBHoa4yy0rVm0XxDaadGtnLc6tLsafdEDCQgJQhT1AIBA/lQB1Wn6nZ6rA82nTrPHHI0TMoONy9R7/AFqta+JNJvLmeC2vUeSBWdxggbVOGIJGGAPBxmuc8I6dJYRvBqelvBs1eZrQQCQrH8rfMeB+7xwrHg5HSs/StNvJYNJsJNPu0fSrO8iuiU8sOXG1VR2+Vi3XIyB3oA7TSvEGma2zjTLgzbFDEmJ1GD0OWAzXz/8Atc/8yj/2+/8AtCvZfCCXMN/LBb/2mNKjtIlVdSQq0cw4KrkDgKBnHy56V41+1z/zKP8A2+/+0KAPpKiiigAooooAKKKKACiiigAooooAKKKKACiiigAooooAKKKKACiiigAooooAKKKKACiiigAooooAKKKKACiiigAooooAKKKKACiiigAooooAKKKKACiiigAooooAKKKKACiiigAr5t/a5/5lH/t9/wDaFfSVfNv7XP8AzKP/AG+/+0KAPpKiiigBryJHt8x1Xcdq7jjJ9KdXm+jsfF/xMv28St9nl8Pz/wDEu0Zj0Ha7bs5PbHC/Xk+kVTVhJ3CiiipGFFFFABRRRQAUUUUAFFFFABRRRQAUUUUAFFFFABRRRQAUUUUAFFFFABRRRQAUUUUAFFFFABRRRQAUUUUAFFFFABRRRQAUUUUAFFFFABRRRQAUUUUAFFFFABXzb+1z/wAyj/2+/wDtCvpKvm39rn/mUf8At9/9oUAfSVFFFAGPqvhjTtX1jTdVnEkN/psm+G4gfYxXvGx7oe4/xNbFFFO4BRRRSAKKKKACiiigAooooAKKKKACiiigAooooAKKKKACiiigAooooAKKKKACiiigAooooAKKKKACiiigAooooAKKKKACiiigAooooAKKKKACiiigAooooAKKKKACvm39rn/mUf8At9/9oV9JV82/tc/8yj/2+/8AtCgD6SooooAKKKKACiiigAooooAKKKKACiiigAooooAKKKKACiiigAooooAKKKKACiiigAooooAKKKKACiiigAooooAKKKKACiiigAooooAKKKKACiiigAooooAKKKKACiiigAooooAK+bf2uf8AmUf+33/2hX0lXzb+1z/zKP8A2+/+0KAPpKiiigAooooAKKKKACiiigAooooAKKKKACiiigAooooAKKKKACiiigAooooAKKKKACiiigAooooAKKKKACiiigAooooAKKKKACiiigAooooAKKKKACiiigAooooAKKKKACiiigAr5t/a5/5lH/t9/wDaFfSVfNv7XP8AzKP/AG+/+0KAPpKiiigDhdZ8V6p4X+JFja6y0b+HNXHk204j2m2uP7rN3B7dPvf7Jpmn+OJdR8T61qD3dvZeENEH2eS6kX/j5uP4sMf4RnHHU7cZzVv4tWVve/C3WxdRLJ5MHnRkjlHU5DD0P+JriPFemw2HwM8HG3t9ul29xY3WoooJBjZSXZh3BdwfqRW0Uml9xm20z0TQviJ4U8S6iLDRtYjnuipZYnjeJnA67d6jdxzxmtTTtf03VdR1CwsLnzbnTZFjuk8tl8tiCQMkAHoema868aa1o3iLxj4Hg8L31pf6jFqiTF7ORXMVsBmQMV6AgdD6U/w1ruleGPid46g8Q6jbaa9xcQXEP2mURiRNhOVJ6nkcDmlyK10Pm1O2Xxr4dbRLnVzqkUdhaztbTTyqyBZFOCuGAJOT2zmn+HPF+h+LI7h/D979rW2YLKfJdNpOcfeUZ6HpXilzmX4C3d4qkQ3niMzwMRjchlAB/MGvoWlKKigi2zG8Q+LtC8KRQya/qMdp55IiUqzu+OuFUEnHrjvRp3i7QdW0GbWbDVIJdPg3edOSVEWBk7gwBXj1FedeN5p9O+N2m3lxrNpokMmkmKzvr21E0SyCQ715ZQrEH72ehx3qGfTLa38FfEHU7TxPYa6+oWoa4FhbrHHFIqNz8rsCWByffnvT5FZBzO516/GDwI03ljxBGDg/M0EqqcejFcH860NB+InhXxNqX2DRdXjuLvaWELRSRswHXbvUZ/CvP/HUaP8As/eGXZFLRrp7ISOVOwDI/Amtzxuir8Zvh/IqgOzXalgOSBGMD9T+dPlj+f4C5mb2rfE7wfoeqS6fqespDdQttkQQyOEPoWVSB+dO8QeIfIufDUmm6zZwWup3iIN8Ly/a0bBCoyghSR3OBXnU/iHUNetvFwvPF+l6HBaXN1bf2NLZwkzIARuYsQxLcjI7/lUFmHXwX8JvMBB/tVOvpvOP0p8iQczPQvCGvalqnjjxjp9/c+ba6bcwJaR+Wq+WrIxIyACeQOua7OvO/AH/ACUz4g/9flt/6A1eiVnPcqOwUUUVBQUUUUAFFFFABRRRQAUUUUAFFFFABRRRQAUUUUAFFFFABRRRQAUUUUAFFFFABRRRQAUUUUAFFFFABRRRQAUUUUAFfNv7XP8AzKP/AG+/+0K+kq+bf2uf+ZR/7ff/AGhQB9JUUUUARXVrb31rJbXsEVxbyrtkimQOjj0IPBFItnbLYiyW3iFqI/KEAQbAmMbdvTGOMdMVNRQBmaV4a0PQ5ZJdG0ixsJJBh3trdYyw9CQOntRqvhrRNdkjk1nSLK/eIYRrm3WQqPQEjp7Vp0U7vcVkVLjSdOvLBLG70+1ntI9uy3lhVo12/dwpGBjt6VboopDKep6Rp2tWv2bV7G3voN24R3EQkUH1we/vUNr4c0Wx02bTrPSLGCynz5tvHboI5M9dy4wfxrSop3YFOfR9MutPjsLnTrSazi2+XbSQK0abfu4UjAx29KfPp1jdXlvd3NnbzXNru+zzSRKzw54O1iMrnvirNFK4GPqHhDw5qt8bzU9C067uWxumntUdmx0ySOavTaXp9x9l+0WNtL9jYPbb4VbyGHQpkfKR6irVFO7CxXt9PsrS6uLm1s4IJ7pg1xLHEqtMR0LEDLEe9WKKKQBRRRQAUUUUAFFFFABRRRQAUUUUAFFFFABRRRQAUUUUAFFFFABRRRQAUUUUAFFFFABRRRQAUUUUAFFFFABRRRQAUUUUAFfNv7XP/Mo/9vv/ALQr6Sr5t/a5/wCZR/7ff/aFAH0lRRRQAUUUUAFFFFABRRRQAUUUUAFFFFABRRRQAUUUUAFFFFABRRRQAUUUUAFFFFABRRRQAUUUUAFFFFABRRRQAUUUUAFFFFABRRRQAUUUUAFFFFABRRRQAUUUUAFFFFABRRRQAV82/tc/8yj/ANvv/tCvpKvm39rn/mUf+33/ANoUAfSVFFFAFZtSsUu/sr3tutxkDyTKofJ6DbnNWa51/tMGq6ntW5AmfMey3LK37pVB39uR+lNNnfRQh43vTIsVqwDTO3zlz5nBPPygZFAHRSSJEheV1RR1ZjgCkimjnj3wuHXJXKnuDgj8wRXL7dXa7u8LdKhV8Kd/BEq4wSxB+XP3QBjjmtvRIZINNKTIyN587YYY4MrkH8QQaANCiiigAooooAKKKKACiiigAooooAKKKKACiiigAooooAKKKKACiiigAooooAKKKKACiiigAooooAKKKKACiiigAooooAKKKKACiiigAooooAKKKKACiiigAr5t/a5/5lH/ALff/aFfSVfNv7XP/Mo/9vv/ALQoA+kqKKKACiiigAooooAKKKKACiiigAooooAKKKKACiiigAooooAKKKKACiiigAooooAKKKKACiiigAooooAKKKKACiiigAooooAKKKKACiiigAooooAKKKKACiiigAooooAKKKKACvm39rn/AJlH/t9/9oV9JV82/tc/8yj/ANvv/tCgD6SooooAKKaS+eFXH+9/9ajMn91f++v/AK1ADqKbmT+6v/fX/wBajMn91f8Avr/61ADqKbmT+6v/AH1/9ajMn91f++v/AK1ADqKbmT+6v/fX/wBajMn91f8Avr/61ADqKbmT+6v/AH1/9ajMn91f++v/AK1ADqKbmT+6v/fX/wBajMn91f8Avr/61ADqKbmT+6v/AH1/9ajMn91f++v/AK1ADqKbmT+6v/fX/wBajMn91f8Avr/61ADqKbmT+6v/AH1/9ajMn91f++v/AK1ADqKbmT+6v/fX/wBajMn91f8Avr/61ADqKbmT+6v/AH1/9ajMn91f++v/AK1ADqKbmT+6v/fX/wBajMn91f8Avr/61ADqKbmT+6v/AH1/9ajMn91f++v/AK1ADqKbmT+6v/fX/wBajMn91f8Avr/61ADqKbmT+6v/AH1/9ajMn91f++v/AK1ADqKbmT+6v/fX/wBajMn91f8Avr/61ADqKbmT+6v/AH1/9ajMn91f++v/AK1ADqKbmT+6v/fX/wBajMn91f8Avr/61ADqKbmT+6v/AH1/9ajMn91f++v/AK1ADqKbmT+6v/fX/wBajMn91f8Avr/61ADqKbmT+6v/AH1/9ajMn91f++v/AK1ADqKbmT+6v/fX/wBajMn91f8Avr/61ADqKbmT+6v/AH1/9ajMn91f++v/AK1ADqKbmT+6v/fX/wBajMn91f8Avr/61ADq+bf2uf8AmUf+33/2hX0hmT+6v/fX/wBavm79rct/xSO4Af8AH70Of+eFAH0nRRRQAUUUUAFFFFABRRRQAUUUUAFFFFABRRRQAUUUUAFFFFABRRRQAUUUUAFFFFABRRRQAUUUUAFFFFABRRRQAUUUUAFFFFABRRRQAUUUUAFFFFABRRRQAUUUUAFFFFABRRRQAV82/tc/8yj/ANvv/tCvpKvm39rn/mUf+33/ANoUAfSVFFFABRRRQAUUUUAFFFFABRRRQAUUUUAFFFFABRRRQAUUUUAFFFFABRRRQAUUUUAFFFFABRRRQAUUUUAFFFFABRRRQAUUUUAFFFFABRRRQAUUUUAFFFFABRRRQAUUUUAFFFFABXzb+1z/AMyj/wBvv/tCvpKvm39rn/mUf+33/wBoUAfSVFFFABRRRQAUUUUAFFFFABRRRQAUUUUAFFFFABRRRQAUUUUAFFFFABRRRQAUUUUAFFFFABRRRQAUUUUAFFFFABRRRQAUUUUAFFFFABRRRQAUUUUAFFFFABRRRQAUUUUAFFFFABXzb+1z/wAyj/2+/wDtCvpKvm39rn/mUf8At9/9oUAfSVFFFABRRRQAUUUUAFFFFABRRRQAUUUUAFFFFABRRRQAUUUUAFFFFABRRRQAUUUUAFFFFABRRRQAUUUUAFFFFABRRRQAUUUUAFFFFABRRRQAUUUUAFFFFABRRRQAUUUUAFFFFABXzb+1z/zKP/b7/wC0K+kq+bf2uf8AmUf+33/2hQB9JUUUUAFFFFABRRRQAUUUUAFFFFABRRRQAUUUUAFFFFABRRRQAUUUUAFFFFABRRRQAUUUUAFFFFABRRRQAUUUUAFFFFABRRRQAUUUUAFFFFABRRRQAUUUUAFFFFABRRRQAUUUUAFfNv7XP/Mo/wDb7/7Qr6Sr5t/a5/5lH/t9/wDaFAH0lRRRQAUUUUAFFFFABRRRQAUUUUAFFFFABRRRQAUUUUAFFFFABRRRQAUUUUAFFFFABRRRQAUUUUAFFFFABRRRQAUUUUAFFFFABRRRQAUUUUAFFFFABRRRQAUUUUAFFFFABRRRQAV82/tc/wDMo/8Ab7/7Qr6Sr5t/a5/5lH/t9/8AaFAH0lRRRQAUUUUAFFFFABRRRQAUUUUAFFFFABRRRQAUUUUAFFFFABRRRQAUUUUAFFFFABRRRQAUUUUAFFFFABRRRQAUUUUAFFFFABRRRQAUUUUAFFFFABRRRQAUUUUAFFFFABRRRQAV82/tc/8AMo/9vv8A7Qr6Sr5t/a5/5lH/ALff/aFAH0lRRRQAUUUUAFFFFABRRRQAUUUUAFFFFABRRRQAUUUUAFFFFABRRRQAUUUUAFFFFABRRRQAUUUUAFFFFABRRRQAUUUUAFFFFABRRRQAUUUUAFFFFABRRRQAUUUUAFFFFABRRRQAV82/tc/8yj/2+/8AtCvpKvm39rn/AJlH/t9/9oUAfSVFFFABRRRQAUUUUAFFFFABRRRQAUUUUAFFFFABRRRQAUUUUAFFFFABRRRQAUUUUAFFFFABRRRQAUUUUAFFFFABRRRQAUUUUAFFFFABRRRQAUUUUAFFFFABRRRQAUUUUAFFFFABXzb+1z/zKP8A2+/+0K+kq+bf2uf+ZR/7ff8A2hQB9JUUUUAFFFFABRRRQAUUUUAFFFFABRRRQAUUUUAFFFFABRRRQAUUUUAFFFFABRRRQAUUUUAFFFFABRRRQAUUUUAFFFFABRRRQAUUUUAFFFFABRRRQAUUUUAFFFFABRRRQAUUUUAFfNv7XP8AzKP/AG+/+0K+kq+bf2uf+ZR/7ff/AGhQB9JUUUUAFFFFABRRRQAUUUUAFFFFABRRRQAUUUUAFFFFABRRRQAUUUUAFFFFABRRRQAUUUUAFFFFABRRRQAUUUUAFFFFABRRRQAUUUUAFFFFABRRRQAUUUUAFFFFABRRRQAUUUUAFfNv7XP/ADKP/b7/AO0K+kq+bf2uf+ZR/wC33/2hQB9JUUUUAFFFFABRRRQAUUUUAFFFFABRRRQAUUUUAFFFFABRRRQAUUUUAFFFFABRRRQAUUUUAFFFFABRRRQAUUUUAFFFFABRRRQAUUUUAFFFFABRRRQAUUUUAFFFFABRRRQAUUUUAFfNv7XP/Mo/9vv/ALQr6Sr5t/a5/wCZR/7ff/aFAH0lRRRQAUUUUAFFFFABRRRQAUUUUAFFFFABRRRQAUUUUAFFFFABRRRQAUUUUAFFFFABRRRQAUUUUAFFFFABRRRQAUUUUAFFFFABRRRQAUUUUAFFFFABRRRQAUUUUAFFFFABRRRQAV82/tc/8yj/ANvv/tCvpKvm39rn/mUf+33/ANoUAfSVFFFABRRRQAUUUUAFFFFABRRRQAUUUUAFFFFABRRRQAUUUUAFFFFABRRRQAUUUUAFFFFABRRRQAUUUUAFFFFABRRRQAUUUUAFFFFABRRRQAUUUUAFFFFABRRRQAUUUUAFFFFABXzb+1z/AMyj/wBvv/tCvpKvm39rn/mUf+33/wBoUAfSVFFFABRRRQAUUUUAFFFFABRRRQAUUUUAFFFFABRRRQAUUUUAFFFFABRRRQAUUUUAFFFFABRRRQAUUUUAFFFFABRRRQAUUUUAFFFFABRRRQAUUUUAFFFFABRRRQAUUUUAFFFFABXzb+1z/wAyj/2+/wDtCvpKvm39rn/mUf8At9/9oUAfSVFFFABRRRQAUUUUAFFFFABRRRQAUUUUAFFFFABRRRQAUUUUAFFFFABRRRQAUUUUAFFFFABRRRQAUUUUAFFFFABRRRQAUUUUAFFFFABRRRQAUUUUAFFFFABRRRQAUUUUAFFFFABXzb+1z/zKP/b7/wC0K+kq+bf2uf8AmUf+33/2hQB9JUUUUAFFFFABRRRQAUUUUAFFFFABRRRQAUUUUAFFFFABRRRQAUUUUAFFFFABRRRQAUUUUAFFFFABRRRQAUUUUAFFFFABRRRQAUUUUAFFFFABRRRQAUUUUAFFFFABRRRQAUUUUAFfNv7XP/Mo/wDb7/7Qr6Sr5t/a5/5lH/t9/wDaFAH0lRRRQAUUUUAFFFFABRRRQAUUUUAFFFFABRRRQAUUUUAFFFFABRRRQAUUUUAFFFFABRRRQAUUUUAFFFFABRRRQAUUUUAFFFFABRRRQAUUUUAFFFFABRRRQAUUUUAFFFFABRRRQAV82/tc/wDMo/8Ab7/7Qr6Sr5t/a5/5lH/t9/8AaFAH0lRRRQAUUUUAFFFFABRRRQAUUUUAFFFFABRRRQAUUUUAFFFFABRRRQAUUUUAFFFFABRRRQAUUUUAFFFFABRRRQAUUUUAFFFFABRRRQAUUUUAFFFFABRRRQAUUUUAFFFFABRRRQAV82/tc/8AMo/9vv8A7Qr6Sr5t/a5/5lH/ALff/aFAH0lRRRQAUUUUAFFFFABRRRQAUUUUAFFFFABRRRQAUUUUAFFFFABRRRQAUUUUAFFFFABRRRQAUUUUAFFFFABRRRQAUUUUAFFFFABRRRQAUUUUAFFFFABRRRQAUUUUAFFFFABRRRQAV82/tc/8yj/2+/8AtCvpKvm39rn/AJlH/t9/9oUAfSVFFFABRRRQAUUUUAFFFFABRRRQAUUUUAFFFFABRRRQAUUUUAFFFFABRRRQAUUUUAFFFFABRRRQAUUUUAFFFFABRRRQAUUUUAFFFFABRRRQAUUUUAFFFFABRRRQAUUUUAFFFFABXzb+1z/zKP8A2+/+0K+kq+bf2uf+ZR/7ff8A2hQB9JUUUUAFFFFABRRRQAUUUUAFFFFABRRRQAUUUUAFFFFABRRRQAUUUUAFFFFABRRRQAUUUUAFFFFABRRRQAUUUUAFFFFABRRRQAUUUUAFFFFABRRRQAUUUUAFFFFABRRRQAUUUUAFfNv7XP8AzKP/AG+/+0K+kq+bf2uf+ZR/7ff/AGhQB9JUUUUAFFFFABRRRQAUUUUAFFFFABRRRQAUUUUAFFFFABRRRQAUUUUAFFFFABRRRQAUUUUAFFFFABRRRQAUUUUAFFFFABRRRQAUUUUAFFFFABRRRQAUUUUAFFFFABRRRQAUUUUAFfNv7XP/ADKP/b7/AO0K+kq+bf2uf+ZR/wC33/2hQB9JUUUUAFFFFABRRRQAUUUUAFFFFABRRRQAUUUUAFFFFABRRRQAUUUUAFFFFABRRRQAUUUUAFFFFABRRRQAUUUUAFFFFABRRRQAUUUUAFFFFABRRRQAUUUUAFFFFABRRRQAUUUUAFfNv7XP/Mo/9vv/ALQr6Sr5t/a5/wCZR/7ff/aFAH0lRRRQAUUUUAFFFFABRRRQAUUUUAFFFFABRRRQAUUUUAFFFFABRRRQAUUUUAFFFFABRRRQAUUUUAFFFFABRRRQAUUUUAFFFFABRRRQAUUUUAFFFFABRRRQAUUUUAFFFFABRRRQAV82/tc/8yj/ANvv/tCvpKvm39rn/mUf+33/ANoUAfSVFFFABRSbh7/kaNw9/wAjQAtFJuHv+Ro3D3/I0ALRSbh7/kaNw9/yNAC0Um4e/wCRo3D3/I0ALRSbh7/kaNw9/wAjQAtFJuHv+Ro3D3/I0ALRSbh7/kaNw9/yNAC0Um4e/wCRo3D3/I0ALRQDmigAorE1u5u21bS9Ls7p7L7WZZJLmNEZgsaj5F3grklgckHhW+oyW17VtN1WbRkdNTna9ihguboiPaskLyEP5a4JHlHoBwy+mTXK2K52NFY3iLVr3R9MhuLS0WdmlCTMRIyQLtYlyEVmIyAOB/Fk8A1jSeMLhb1o7VILqS4t7D7MqTg25knaUFg4TcVwmc85wMAZNCi2F0dlRXJx+JtXmuV0+Oyshf8A22W1dmnfysJEsm4fLnkMBjtzzU934inPw3vddWP7Pcw2c0hSNw2ySPcDtLKQRlTglfwo5WF0dLRXKt4p1BNSl/0K2Onw6nFpzt5zeaWcJhwNuMZkHGema2LjVGg8TWOliIFbq1nnMmeVMbRADHv5h/KlZhc0qK4zTfGl9fTaQ09jBaWmo28EgnmeTa7yFsxowQruGBgMQW3cUkXinV5bQiwtbe4kit7i5ka7mKFgkzoFGxMdF64/PrT5WHMjtKK5Obxbess15Y2MDadavbpO0sxWVjKsbnaoUj5VlQ8nk5HGM11lJpoLhRRSbgPX8jSGLRSbh7/kaNw9/wAjQAtFJuHv+Ro3D3/I0ALRSbh7/kaNw9/yNAC0Um4e/wCRo3D3/I0ALRSbh7/kaNw9/wAjQAtFJuHv+Ro3D3/I0ALRSbh7/kaNw9/yNAC0Um4e/wCRpQc//qoAK+bf2uf+ZR/7ff8A2hX0lXzb+1z/AMyj/wBvv/tCgD6SooooAKKKKACiiigAooooAKKKKACiiigAooooAKKKKACiiigAooooAqalpdpq1usN9GzqjiRGSRo3jbBG5XUhlOCRkEcEjvVe28O6XaRwLDbt+4uDdI7yu7mUoU3szElztJHzE8Y9BWnRTuwKmo6bb6rbCC7M4QNuBguJIWzgj7yMDjnpnFZ934U02SxmhsrWC3d4YYEYhysawkmPaFdSpUs2CpU5PXituii7QrHP+H/CcGjR77iZry6FzJcLMWk+UugQj5nZj8qgfMzGtF9E0+TRJtIe3zYzpIkkW9vmDklhnOedx71foouwsjPOh6cyyA2/El2l4/ztzMm3a3XtsXjpx0pdT0Sx1jyjfRyF4SfLlhneGRM9QHQhsHAyM4OBnpV+ii7GZR8NaV59pILZlWzCCCFZnWFNn3D5QbYSOMEjIwPSpINA022DiG22h4nhb94xyjsXYde7MT+NaNFF2KyOV1XwPDqF9BJbTpZ28awLIkYm3yrE2QCRKEbgAAsjEc89MdVRRQ22FgooopDCiiigAooooAKKKKACiiigAooooAKKKKACiiigAooooAK+bf2uf+ZR/wC33/2hX0lXzb+1z/zKP/b7/wC0KAPpKiiigAooooAKKKKACiiigAooooAKKKKACiiigAooooAKKKKACiiorq6gsrSW5u5VhgiUs7scBQKNwJaa0iIMuyqPc4rxnxX8Wb69mktfDhNpaj5ftBH72T3H90fr9Olef3d5c39w099cS3MzdZJXLMfxNelTy+clebscssTFOy1PqZJEk/1bq3+6c06vlW2up7O4We0mkgmQ5WSJyrL9CK7zwv8AFfU9Mljt9dLahZ5wZD/rkHrn+L6Hn3oqZfOKvB3COJi3qrHt1FV7G+ttTsYrywmWa3mXcjr0IqxXnNNOzOoKKKjlmEY9W9KQElGaovK79Tx6CmUAaNFUFkdPusfpVqKcScHhv50AS0UUUAFFFFABRRRQAUUUUAFFFFABRRRQAUUUUAFFFFABRRRQAV82/tc/8yj/ANvv/tCvpKvm39rn/mUf+33/ANoUAfSVFFFABRRRQAUUUUAFFFFABRRRQAUUUUAFFFFABRRRQAUUUUAFeO/F3xRJcaiugWkhEEAD3OD99zyFPsBg/U+1exV8v65enUtfv70nPn3DyD6Fjj9K9HL6alUcn0ObESajZdShSgZOByaSu5+FmhQap4kF9cXUcZ0+RHS3dQTMSGxjnsQD0NezUqKnBzfQ4YxcpWRyN3pWo6fEkl/YXVtHJwjzQsgb6Ejmqlel/F2S6E1tFcarDdxNNI0VtHCqtbgADDMCSTz3A6V5pU0ajqQUmOceWVj0L4T+KJNO1waNcyE2l6f3YP8ABL2x9en1xXttfK1ncyWd9BcwMUlhkWRGHYg5Br6oU7lB9RmvJzCmozUl1OzDSbi12EdtiFj2qixLMSeSas3RwgHqaq15p1CMwRSzEKoGSSeBWM3i/wAPrP5R1W335x97j8+lZfjm3vtVjt9K0+cRCRgZVJwHBOBz6Dris/UPCHhLQ9Pij1aSZZZQQtwGbJIxkgDgdfSuSnWniKsqWHV3HR+u9j06dHB0qKq4qbXNslbRd3c7yORJo1kidXRhlWU5BH1pwODkda57wzqmgCGLSdDn3eWhYKUYE+pJI6810NdsqdSnpUVmeY5U5Num7ovRP5kYPfvT6r2h+8O1WKkAooooAKKKKACiiigAooooAKKKKACiiigAooooAKKKKACvm39rn/mUf+33/wBoV9JV82/tc/8AMo/9vv8A7QoA+kqKKKACiiigAooooAKKKKACiiigAooooAKKKKACiiigAooooAK+YvENidN8SajZkYENy6r/ALu44/TFfTteS/F3wrL9oXxDZRlkZQl2F/hI4V/pjg/QV6GAqKFTlfU5sRFyjddDyqum+HTBPiDpZYhQHfJJ/wBhq5mivbnHmi49zgi7NM3PGhDeN9XKkEG7fBH1rDoopxjyxSBu7uWLC0l1DUrazt13SzyrGg9STivqYDCgegrxv4S+FJLvUv7evI8W1vkW+4ffk6Fh7D+f0r2WvFzCopTUV0O7DRajd9SC6GYwfQ1VrQdQ6lT3qgylGIbqK806jk/GyalawQ6lpKbmhP73C5KgHIOPT1rJvPGvh7VrCI6vps01xECVix8oY9cNnpx6V6DVFtE0t5/OfTrVpc53mFc/yrnp0XQqOpQfK5av1OWvCvUfuz0taz1XyOO+H+lSyajc609v9mt3BSCMdOTk4z2GMZrv6QAAAAYA6AU4AsQByTXfiMRPET557mlGkqMOVFi0HDHt0qxTY08tAv506sDYKKKKACiiigAooooAKKKKACiiigAooooAKKKKACiiigAr5t/a5/5lH/t9/wDaFfSVfNv7XP8AzKP/AG+/+0KAPpKiiigAooooAKKKKACiiigAooooAKKKKACiiigAooooAKKKKACmSxRzwvDOiyRyKVdHGQwPUEU+igDyXxV8IpTNJd+F2UoxybKRsFf91jx+Bx9a89vvDms6axF9pd3CB1ZoW2/n0r6cor0KePqQVpanNLDxk7rQ+YLLQdW1IgWGm3VxnvHCxH54xXf+F/hDdTTR3PiZxBCDn7JG2Xf2Zhwo6dMn6V7BRTqY+pJWirBHDxTu9SO2tobO2jt7WJIYY1CpGgwFHoBUlFFecdIUySJZBzwexp9FAFJ4HXtkeopm05xg/lWhRQBSWF2/hx7mrMUIj9z61JRQAUUUUAFFFFABRRRQAUUUUAFFFFABRRRQAUUUUAFFFFABRRRQAV82/tc/8yj/ANvv/tCvpKvm39rn/mUf+33/ANoUAfSVFFFABRRRQAUUUUAFFFFABRRRQAUUUUAFFFFABRUN5dJY2M93KGMcETSsFHJCjJx78Vl2PiWO6ubeG60+8043URlge68vbKAASAUdgCAc4ODgEjocOzA2qKyoPFOg3NnPd2+sWUlvbBWmlWdSsYbhSTnoe3rQPEumyQwzWcwvIZbg27S25DrCwRnJfn5QAv15HrRZiujVorN0bXbPXtFj1PTmLQyLu2tgMpxnacZ55qj4e8aaN4g0WG+hvraJzZrdzwGdS1upGW3eyngn2oswujoKKz7PX9J1AqLLUbactL5IEcgJ37S+3HrtBOPQE1Hd+JtEsCBe6tZwEs6fvJlXlCA35EgH0zRZjualFVr7UbPTLcT6hcxW0RYKHkYAEnoPrVObxToUFpb3U2r2aQXKs8MhmXEgX7xHqB39KLMDVoqvJf2kWnm+kuYltBH5nnlxs2Yzuz0xjvVT/hJdE/s19Q/tW0FokvktMZhtWTj5Cf73I4680WYGnRWU3ijQle2RtXsw90oaBfOXMgLbQQPTPH14p8fiLRpr2e0i1S0e4tw5liWYFk2cPkf7Pf070WYro0qKp3Gr6dZweddXsEMXledvkkCjZkDdk9sso/EVnXfjPQrWzhuvt8c8Et0tpvhYMEkOPvc8YBBPfB6UWbC6N2isx9bEWswWE9hdxLcuY4LpvLMUrBC5AwxYfKrdVA4PtVuS8CXJgSKSV1UO2zHygkgdSPQ9Kai2DaRYoqBryGMOZZFjCPsyzDk4z/WkfULREV3uYgrjcpLjketHLLsLmj3LFFNaREUF2ABIAJPUngVHJd28WfNmRcNsOT3xnH5c0km9htpbk1FNjkSWNXjYOjDIZTkGnUhhRRRQAUUUUAFFFFABRRRQAUUUUAFFFFABXzb+1z/zKP8A2+/+0K+kq+bf2uf+ZR/7ff8A2hQB9JUUUUAFFFFABRRRQAUUUUAFFFFABRRRQAUUUUAVdVtXvtHvLSIqJJ4HiUseAWUgZ9ua5ubw5q+tafDY6z9jsoLa0lhj+yTvOzyPCYg5LIm0BXf5eckjkY566imnYVrnH3fhzWNWkFzfjT7WeKKCGOO2ldkdVuEldiSgI4jwq4OMnnnjd07TprPWNXu5GQx300ckYUnICxKhzx1yvvxitOijmYWMjw/pt3pnhyHTLvyd1snkxvE5YSIBhWIKjaT3XnHqa51PBmsQ6Polva30FtdadoMumvPGzcSsIMMpwDt/dNzwRkYHp3NFPmYWRxEXg7URFqV0nkQahI1vLZLJfTXSxyQliC0jqG2tuKkAcKT60lz4GuFe3dRDqW6yFteLNezWnmSb2dpf3QIbc0j5Uj0weue4oo5mLlRi6/pd5eadaQaW+0W8ytJCbuS386MIy7PNQFl5Kt0OduD1rN0Xwteadf6dcTSQ7beC/WRPOeRg1xcJKoDMMuAFILHBJwcc8dZRRzO1h2ObttA1K0+HVjocFykd9a2sELSRyuits27lDgblDBSu4DIznHFU7XwzqlpCLmFLUXceqC/S2mvZZ0I+zCAqZnXfnGWB2nHAxXYUUczCxz0FhrNt4gl1NLawf7dBDFcxNdODAYy/KN5f7wEP0ITke/FC18K6h9msdMu2tFsNP8/yriJ2aabekkY3KVAXiQk/M2SAeK7CijmYWONPhrW722iXUGsIntbWG2h8iV2Em2WN3dsoNuRGMKM4yfmq1qnh3UJ7y8u7NrZne+tbuGOWRkDeUFDBiFO3OOCAe1dRRRzMLIzhpgfxIdTmQMUtVhhJk3eWSzF9q7flyNmW3HOAMDGS+/tZbniJIg23CTlyHjPqMDn6ZFXqKIycXdClFNWZmS20ttcG6XbIfOLKmGOQUC9gSDx6UWVrK1uHkUIXiddjZyCzE+noa06K09q+WxPs1e5UltZH0+GJSvmRGNhk8EqQcZ98VVa3uo7qKYRxvJJOzsoc7VHl7fvY9vTvWrRSjUaB00ylaRXdvKkTLAbco7u4chhIXyFC4xtwTznPA4q7RRWbd3dlpWVgooopDCiiigAooooAKKKKACiiigAooooAK+bf2uf+ZR/7ff8A2hX0lXzb+1z/AMyj/wBvv/tCgD6Soryv/hoPwp/0D9Y/78xf/HKP+Gg/Cn/QP1j/AL8xf/HKAPVKK8s/4aD8Kn/mH6x/35i/+OUf8NBeFf8AoH6x/wB+Yv8A45QB6nRXln/DQPhX/oH6x/35i/8AjlL/AMNA+Ff+gfrH/fmL/wCOUAepUV5b/wANA+Ff+gfrH/fmL/45Sf8ADQPhX/oH6x/35i/+OUAep0V5aP2gfCp/5h+sf9+Yv/jlH/DQHhX/AJ8NY/78xf8AxygD1KivLf8AhoDwr/z4ax/35i/+OUf8NAeFf+fDWP8AvzF/8coA9Sory3/hoDwrn/jw1j/vzF/8co/4aB8K/wDQP1j/AL8xf/HKAPUqK8t/4aB8K/8AQP1j/vzF/wDHKP8AhoHwr/0D9Y/78xf/ABygD1KivLf+GgPCv/PhrH/fmL/45R/w0D4V/wCgfrH/AH5i/wDjlAHqVFeW/wDDQHhX/nw1j/vzF/8AHKP+GgPCv/PhrH/fmL/45QB6lRXlv/DQHhX/AJ8NY/78xf8Axyj/AIaA8K/8+Gsf9+Yv/jlAHqVFeW/8NAeFf+fDWP8AvzF/8co/4aA8K/8APhrH/fmL/wCOUAepUV5b/wANA+FR/wAw/WP+/MX/AMco/wCGgfCv/QP1j/vzF/8AHKAPUqK8t/4aB8K/9A/WP+/MX/xyk/4aC8K/9A/WP+/MX/xygD1OivLP+GgvCv8A0D9Y/wC/MX/xyj/hoPwr/wBA/WP+/MX/AMcoA9Toryr/AIaF8Kf9A/Wf+/EX/wAcpP8AhobwoP8AmH6z/wB+Iv8A45QB6tRXlP8Aw0P4T/6B+s/9+Iv/AI5Sf8NE+E/+gfrX/fiL/wCO0Aer0V5P/wANFeEv+gdrX/fiL/47Sf8ADRfhL/oHa1/34i/+O0Aes0V5Kf2jPCI/5h2tf9+Iv/jtH/DRvhH/AKB2tf8AfiL/AOO0AetUV5J/w0d4R/6B2t/9+Iv/AI7R/wANH+Ef+gdrf/fiH/47QB63RXkn/DR/hE/8w7W/+/EP/wAdpP8Aho/wj/0Dtb/78Q//AB2gD1yivI/+GkPCH/QO1v8A78Q//HaP+GkPCH/QO1v/AL8Q/wDx2gD1yivI/wDhpDwhn/kHa3/34h/+O0f8NI+EP+gdrf8A34h/+O0AeuUV5F/w0j4Q/wCgdrf/AH4h/wDjtH/DSPhD/oHa3/34h/8AjtAHrtFeR/8ADSPhD/oHa3/34h/+O0n/AA0l4Q/6But/9+If/jtAHrtfNv7XP/Mo/wDb7/7Qrtf+GkvCH/QN1v8A78Q//Ha8j+Onj3S/ib/YX9gwXlv/AGd9o837aipu8zy8bdrN/cOc47UAf//Z;" vertex="1" parent="TJBLfhvohseIE7fdDAho-1">
          <mxGeometry x="470" y="40" width="281.34" height="500" as="geometry" />
        </mxCell>
        <mxCell id="klqDezVTDR9u_PSz2rWF-0" value="Título da página" style="text;html=1;resizable=0;autosize=1;align=center;verticalAlign=middle;points=[];fillColor=none;strokeColor=none;rounded=0;strokeWidth=2;horizontal=1;spacing=9;fontSize=14;" vertex="1" parent="TJBLfhvohseIE7fdDAho-1">
          <mxGeometry x="173.5" y="130" width="130" height="40" as="geometry" />
        </mxCell>
        <mxCell id="klqDezVTDR9u_PSz2rWF-2" value="" style="html=1;shadow=0;dashed=0;align=center;verticalAlign=middle;shape=mxgraph.arrows2.arrow;dy=0.6;dx=40;flipH=1;notch=0;" vertex="1" parent="TJBLfhvohseIE7fdDAho-1">
          <mxGeometry x="150" y="145" width="10" height="10" as="geometry" />
        </mxCell>
        <mxCell id="klqDezVTDR9u_PSz2rWF-3" value="" style="line;strokeWidth=2;html=1;" vertex="1" parent="TJBLfhvohseIE7fdDAho-1">
          <mxGeometry x="160" y="145" width="10" height="10" as="geometry" />
        </mxCell>
        <mxCell id="klqDezVTDR9u_PSz2rWF-7" value="" style="shape=ext;double=1;rounded=0;whiteSpace=wrap;html=1;" vertex="1" parent="TJBLfhvohseIE7fdDAho-1">
          <mxGeometry x="150" y="200" width="160" height="200" as="geometry" />
        </mxCell>
        <mxCell id="klqDezVTDR9u_PSz2rWF-9" value="" style="shape=ext;double=1;rounded=0;whiteSpace=wrap;html=1;" vertex="1" parent="TJBLfhvohseIE7fdDAho-1">
          <mxGeometry x="150" y="180" width="160" height="40" as="geometry" />
        </mxCell>
        <mxCell id="klqDezVTDR9u_PSz2rWF-10" value="Login" style="text;html=1;resizable=0;autosize=1;align=center;verticalAlign=middle;points=[];fillColor=none;strokeColor=none;rounded=0;strokeWidth=2;horizontal=1;spacing=9;fontSize=14;" vertex="1" parent="TJBLfhvohseIE7fdDAho-1">
          <mxGeometry x="191.75" y="180" width="70" height="40" as="geometry" />
        </mxCell>
        <mxCell id="klqDezVTDR9u_PSz2rWF-11" value="&lt;font style=&quot;font-size: 10px&quot;&gt;Email&lt;/font&gt;" style="text;html=1;resizable=0;autosize=1;align=center;verticalAlign=middle;points=[];fillColor=none;strokeColor=none;rounded=0;strokeWidth=2;horizontal=1;spacing=9;fontSize=14;" vertex="1" parent="TJBLfhvohseIE7fdDAho-1">
          <mxGeometry x="155" y="230" width="60" height="40" as="geometry" />
        </mxCell>
        <mxCell id="klqDezVTDR9u_PSz2rWF-12" value="&lt;span style=&quot;font-size: 10px&quot;&gt;Senha&lt;/span&gt;" style="text;html=1;resizable=0;autosize=1;align=center;verticalAlign=middle;points=[];fillColor=none;strokeColor=none;rounded=0;strokeWidth=2;horizontal=1;spacing=9;fontSize=14;" vertex="1" parent="TJBLfhvohseIE7fdDAho-1">
          <mxGeometry x="155" y="275" width="60" height="40" as="geometry" />
        </mxCell>
        <mxCell id="klqDezVTDR9u_PSz2rWF-13" value="" style="line;strokeWidth=2;html=1;" vertex="1" parent="TJBLfhvohseIE7fdDAho-1">
          <mxGeometry x="170" y="270" width="106.5" height="10" as="geometry" />
        </mxCell>
        <mxCell id="klqDezVTDR9u_PSz2rWF-14" value="" style="line;strokeWidth=2;html=1;" vertex="1" parent="TJBLfhvohseIE7fdDAho-1">
          <mxGeometry x="170" y="315" width="106.5" height="10" as="geometry" />
        </mxCell>
        <mxCell id="klqDezVTDR9u_PSz2rWF-18" value="Entrar" style="shape=ext;double=1;rounded=1;whiteSpace=wrap;html=1;" vertex="1" parent="TJBLfhvohseIE7fdDAho-1">
          <mxGeometry x="170" y="350" width="120" height="30" as="geometry" />
        </mxCell>
        <mxCell id="klqDezVTDR9u_PSz2rWF-20" value="&lt;span style=&quot;font-size: 10px&quot;&gt;Não possui uma conta? &lt;i&gt;&lt;u&gt;Cadastre-se aqui!&lt;/u&gt;&lt;/i&gt;&lt;/span&gt;" style="text;html=1;resizable=0;autosize=1;align=center;verticalAlign=middle;points=[];fillColor=none;strokeColor=none;rounded=0;strokeWidth=2;horizontal=1;spacing=9;fontSize=14;" vertex="1" parent="TJBLfhvohseIE7fdDAho-1">
          <mxGeometry x="116.75" y="420" width="220" height="40" as="geometry" />
        </mxCell>
      </root>
    </mxGraphModel>
  </diagram>
  <diagram id="DStIzCNSkEPszHXbWASS" name="Page-3">
    <mxGraphModel dx="984" dy="433" grid="1" gridSize="10" guides="1" tooltips="1" connect="1" arrows="1" fold="1" page="1" pageScale="1" pageWidth="827" pageHeight="1169" math="0" shadow="0">
      <root>
        <mxCell id="rYdo2-sIR2QY2s_oFUP6-0" />
        <mxCell id="rYdo2-sIR2QY2s_oFUP6-1" parent="rYdo2-sIR2QY2s_oFUP6-0" />
        <mxCell id="dQhYOlXB0KfQvpyLzLch-0" value="" style="html=1;verticalLabelPosition=bottom;labelBackgroundColor=#ffffff;verticalAlign=top;shadow=0;dashed=0;strokeWidth=1;shape=mxgraph.ios7.misc.iphone;strokeColor=#c0c0c0;" vertex="1" parent="rYdo2-sIR2QY2s_oFUP6-1">
          <mxGeometry x="108.25" y="50" width="237" height="510" as="geometry" />
        </mxCell>
        <mxCell id="dQhYOlXB0KfQvpyLzLch-1" value="Título da página" style="text;html=1;resizable=0;autosize=1;align=center;verticalAlign=middle;points=[];fillColor=none;strokeColor=none;rounded=0;strokeWidth=2;horizontal=1;spacing=9;fontSize=14;" vertex="1" parent="rYdo2-sIR2QY2s_oFUP6-1">
          <mxGeometry x="173.5" y="130" width="130" height="40" as="geometry" />
        </mxCell>
        <mxCell id="dQhYOlXB0KfQvpyLzLch-2" value="" style="html=1;shadow=0;dashed=0;align=center;verticalAlign=middle;shape=mxgraph.arrows2.arrow;dy=0.6;dx=40;flipH=1;notch=0;" vertex="1" parent="rYdo2-sIR2QY2s_oFUP6-1">
          <mxGeometry x="150" y="145" width="10" height="10" as="geometry" />
        </mxCell>
        <mxCell id="dQhYOlXB0KfQvpyLzLch-3" value="" style="line;strokeWidth=2;html=1;" vertex="1" parent="rYdo2-sIR2QY2s_oFUP6-1">
          <mxGeometry x="160" y="145" width="10" height="10" as="geometry" />
        </mxCell>
        <mxCell id="dQhYOlXB0KfQvpyLzLch-4" value="" style="shape=ext;double=1;rounded=0;whiteSpace=wrap;html=1;" vertex="1" parent="rYdo2-sIR2QY2s_oFUP6-1">
          <mxGeometry x="150" y="200" width="160" height="200" as="geometry" />
        </mxCell>
        <mxCell id="dQhYOlXB0KfQvpyLzLch-5" value="" style="shape=ext;double=1;rounded=0;whiteSpace=wrap;html=1;" vertex="1" parent="rYdo2-sIR2QY2s_oFUP6-1">
          <mxGeometry x="150" y="180" width="160" height="40" as="geometry" />
        </mxCell>
        <mxCell id="dQhYOlXB0KfQvpyLzLch-6" value="Cadastre-se" style="text;html=1;resizable=0;autosize=1;align=center;verticalAlign=middle;points=[];fillColor=none;strokeColor=none;rounded=0;strokeWidth=2;horizontal=1;spacing=9;fontSize=14;" vertex="1" parent="rYdo2-sIR2QY2s_oFUP6-1">
          <mxGeometry x="171.75" y="180" width="110" height="40" as="geometry" />
        </mxCell>
        <mxCell id="dQhYOlXB0KfQvpyLzLch-7" value="&lt;font style=&quot;font-size: 10px&quot;&gt;Email&lt;/font&gt;" style="text;html=1;resizable=0;autosize=1;align=center;verticalAlign=middle;points=[];fillColor=none;strokeColor=none;rounded=0;strokeWidth=2;horizontal=1;spacing=9;fontSize=14;" vertex="1" parent="rYdo2-sIR2QY2s_oFUP6-1">
          <mxGeometry x="155" y="230" width="60" height="40" as="geometry" />
        </mxCell>
        <mxCell id="dQhYOlXB0KfQvpyLzLch-8" value="&lt;span style=&quot;font-size: 10px&quot;&gt;Senha&lt;/span&gt;" style="text;html=1;resizable=0;autosize=1;align=center;verticalAlign=middle;points=[];fillColor=none;strokeColor=none;rounded=0;strokeWidth=2;horizontal=1;spacing=9;fontSize=14;" vertex="1" parent="rYdo2-sIR2QY2s_oFUP6-1">
          <mxGeometry x="155" y="275" width="60" height="40" as="geometry" />
        </mxCell>
        <mxCell id="dQhYOlXB0KfQvpyLzLch-9" value="" style="line;strokeWidth=2;html=1;" vertex="1" parent="rYdo2-sIR2QY2s_oFUP6-1">
          <mxGeometry x="170" y="270" width="106.5" height="10" as="geometry" />
        </mxCell>
        <mxCell id="dQhYOlXB0KfQvpyLzLch-10" value="" style="line;strokeWidth=2;html=1;" vertex="1" parent="rYdo2-sIR2QY2s_oFUP6-1">
          <mxGeometry x="170" y="315" width="106.5" height="10" as="geometry" />
        </mxCell>
        <mxCell id="dQhYOlXB0KfQvpyLzLch-11" value="Entrar" style="shape=ext;double=1;rounded=1;whiteSpace=wrap;html=1;" vertex="1" parent="rYdo2-sIR2QY2s_oFUP6-1">
          <mxGeometry x="170" y="350" width="120" height="30" as="geometry" />
        </mxCell>
        <mxCell id="dQhYOlXB0KfQvpyLzLch-12" value="&lt;span style=&quot;font-size: 10px&quot;&gt;&lt;u&gt;Já possui uma conta?&lt;/u&gt;&lt;i&gt;&lt;u&gt;&lt;br&gt;&lt;/u&gt;&lt;/i&gt;&lt;/span&gt;" style="text;html=1;resizable=0;autosize=1;align=center;verticalAlign=middle;points=[];fillColor=none;strokeColor=none;rounded=0;strokeWidth=2;horizontal=1;spacing=9;fontSize=14;" vertex="1" parent="rYdo2-sIR2QY2s_oFUP6-1">
          <mxGeometry x="161.75" y="420" width="130" height="40" as="geometry" />
        </mxCell>
      </root>
    </mxGraphModel>
  </diagram>
  <diagram id="VpgifKulws5G5SV9JF0V" name="Page-4">
    <mxGraphModel dx="1181" dy="520" grid="1" gridSize="10" guides="1" tooltips="1" connect="1" arrows="1" fold="1" page="1" pageScale="1" pageWidth="827" pageHeight="1169" math="0" shadow="0">
      <root>
        <mxCell id="ssV0czQq5xQ3oT86LQeA-0" />
        <mxCell id="ssV0czQq5xQ3oT86LQeA-1" parent="ssV0czQq5xQ3oT86LQeA-0" />
        <mxCell id="ssV0czQq5xQ3oT86LQeA-2" value="" style="html=1;verticalLabelPosition=bottom;labelBackgroundColor=#ffffff;verticalAlign=top;shadow=0;dashed=0;strokeWidth=1;shape=mxgraph.ios7.misc.iphone;strokeColor=#c0c0c0;" parent="ssV0czQq5xQ3oT86LQeA-1" vertex="1">
          <mxGeometry x="110" y="550" width="277" height="530" as="geometry" />
        </mxCell>
        <mxCell id="ssV0czQq5xQ3oT86LQeA-4" value="Título da Página" style="text;html=1;resizable=0;autosize=1;align=center;verticalAlign=middle;points=[];fillColor=none;strokeColor=none;rounded=0;fontSize=14;" parent="ssV0czQq5xQ3oT86LQeA-1" vertex="1">
          <mxGeometry x="120" y="640" width="120" height="20" as="geometry" />
        </mxCell>
        <mxCell id="ssV0czQq5xQ3oT86LQeA-6" value="" style="rounded=0;whiteSpace=wrap;html=1;fontSize=14;strokeWidth=2;align=center;" parent="ssV0czQq5xQ3oT86LQeA-1" vertex="1">
          <mxGeometry x="130" y="950" width="240" height="50" as="geometry" />
        </mxCell>
        <mxCell id="ssV0czQq5xQ3oT86LQeA-13" value="&lt;b&gt;Home&lt;/b&gt;" style="text;html=1;resizable=0;autosize=1;align=center;verticalAlign=middle;points=[];fillColor=none;strokeColor=none;rounded=0;fontSize=14;" parent="ssV0czQq5xQ3oT86LQeA-1" vertex="1">
          <mxGeometry x="150" y="965" width="50" height="20" as="geometry" />
        </mxCell>
        <mxCell id="ssV0czQq5xQ3oT86LQeA-14" value="Contatos" style="rounded=0;whiteSpace=wrap;html=1;fontSize=14;strokeWidth=2;align=center;" parent="ssV0czQq5xQ3oT86LQeA-1" vertex="1">
          <mxGeometry x="250" y="950" width="120" height="50" as="geometry" />
        </mxCell>
        <mxCell id="ssV0czQq5xQ3oT86LQeA-15" value="" style="rounded=1;whiteSpace=wrap;html=1;fontSize=14;strokeWidth=2;align=center;" parent="ssV0czQq5xQ3oT86LQeA-1" vertex="1">
          <mxGeometry x="130" y="670" width="240" height="10" as="geometry" />
        </mxCell>
        <mxCell id="ssV0czQq5xQ3oT86LQeA-16" style="edgeStyle=orthogonalEdgeStyle;rounded=0;orthogonalLoop=1;jettySize=auto;html=1;exitX=0.5;exitY=1;exitDx=0;exitDy=0;fontSize=14;" parent="ssV0czQq5xQ3oT86LQeA-1" source="ssV0czQq5xQ3oT86LQeA-15" target="ssV0czQq5xQ3oT86LQeA-15" edge="1">
          <mxGeometry relative="1" as="geometry" />
        </mxCell>
        <mxCell id="ssV0czQq5xQ3oT86LQeA-18" value="" style="rounded=0;whiteSpace=wrap;html=1;fontSize=14;strokeWidth=2;align=center;" parent="ssV0czQq5xQ3oT86LQeA-1" vertex="1">
          <mxGeometry x="140" y="700" width="70" height="60" as="geometry" />
        </mxCell>
        <mxCell id="ssV0czQq5xQ3oT86LQeA-19" value="Imagem1" style="text;html=1;resizable=0;autosize=1;align=center;verticalAlign=middle;points=[];fillColor=none;strokeColor=none;rounded=0;fontSize=14;" parent="ssV0czQq5xQ3oT86LQeA-1" vertex="1">
          <mxGeometry x="140" y="720" width="70" height="20" as="geometry" />
        </mxCell>
        <mxCell id="ssV0czQq5xQ3oT86LQeA-23" value="&amp;nbsp; &amp;nbsp; &amp;nbsp; &amp;nbsp; &amp;nbsp; &amp;nbsp; &amp;nbsp; &amp;nbsp; &amp;nbsp; &amp;nbsp;Reportagem 1 - &lt;br&gt;&amp;nbsp; &amp;nbsp; &amp;nbsp; &amp;nbsp;Edição 1" style="text;html=1;resizable=0;autosize=1;align=center;verticalAlign=middle;points=[];fillColor=none;strokeColor=none;rounded=0;fontSize=14;" parent="ssV0czQq5xQ3oT86LQeA-1" vertex="1">
          <mxGeometry x="153.5" y="700" width="190" height="40" as="geometry" />
        </mxCell>
        <mxCell id="ssV0czQq5xQ3oT86LQeA-25" value="Descrição da reportagem" style="text;html=1;resizable=0;autosize=1;align=center;verticalAlign=middle;points=[];fillColor=none;strokeColor=none;rounded=0;fontSize=10;" parent="ssV0czQq5xQ3oT86LQeA-1" vertex="1">
          <mxGeometry x="230" y="740" width="130" height="20" as="geometry" />
        </mxCell>
        <mxCell id="p0NNiC7ggiBJWwDh4AgH-2" value="&amp;nbsp; &amp;nbsp; &amp;nbsp; &amp;nbsp; &amp;nbsp; &amp;nbsp; &amp;nbsp; &amp;nbsp; &amp;nbsp; &amp;nbsp;Reportagem 1 - &lt;br&gt;&amp;nbsp; &amp;nbsp; &amp;nbsp; &amp;nbsp;Edição 1" style="text;html=1;resizable=0;autosize=1;align=center;verticalAlign=middle;points=[];fillColor=none;strokeColor=none;rounded=0;fontSize=14;" vertex="1" parent="ssV0czQq5xQ3oT86LQeA-1">
          <mxGeometry x="155" y="785" width="190" height="40" as="geometry" />
        </mxCell>
        <mxCell id="p0NNiC7ggiBJWwDh4AgH-4" value="&amp;nbsp; &amp;nbsp; &amp;nbsp; &amp;nbsp; &amp;nbsp; &amp;nbsp; &amp;nbsp; &amp;nbsp; &amp;nbsp; &amp;nbsp;Reportagem 1 - &lt;br&gt;&amp;nbsp; &amp;nbsp; &amp;nbsp; &amp;nbsp;Edição 1" style="text;html=1;resizable=0;autosize=1;align=center;verticalAlign=middle;points=[];fillColor=none;strokeColor=none;rounded=0;fontSize=14;" vertex="1" parent="ssV0czQq5xQ3oT86LQeA-1">
          <mxGeometry x="155" y="870" width="190" height="40" as="geometry" />
        </mxCell>
        <mxCell id="p0NNiC7ggiBJWwDh4AgH-5" value="Descrição da reportagem" style="text;html=1;resizable=0;autosize=1;align=center;verticalAlign=middle;points=[];fillColor=none;strokeColor=none;rounded=0;fontSize=10;" vertex="1" parent="ssV0czQq5xQ3oT86LQeA-1">
          <mxGeometry x="230" y="820" width="130" height="20" as="geometry" />
        </mxCell>
        <mxCell id="p0NNiC7ggiBJWwDh4AgH-7" value="Descrição da reportagem" style="text;html=1;resizable=0;autosize=1;align=center;verticalAlign=middle;points=[];fillColor=none;strokeColor=none;rounded=0;fontSize=10;" vertex="1" parent="ssV0czQq5xQ3oT86LQeA-1">
          <mxGeometry x="230" y="910" width="130" height="20" as="geometry" />
        </mxCell>
        <mxCell id="p0NNiC7ggiBJWwDh4AgH-8" value="Imagem2" style="rounded=0;whiteSpace=wrap;html=1;fontSize=14;strokeWidth=2;align=center;" vertex="1" parent="ssV0czQq5xQ3oT86LQeA-1">
          <mxGeometry x="140" y="785" width="70" height="60" as="geometry" />
        </mxCell>
        <mxCell id="p0NNiC7ggiBJWwDh4AgH-9" value="Imagem3" style="rounded=0;whiteSpace=wrap;html=1;fontSize=14;strokeWidth=2;align=center;" vertex="1" parent="ssV0czQq5xQ3oT86LQeA-1">
          <mxGeometry x="140" y="870" width="70" height="60" as="geometry" />
        </mxCell>
      </root>
    </mxGraphModel>
  </diagram>
  <diagram id="OKqtH09en5pq6ymYJJ7x" name="Page-5">
    <mxGraphModel dx="984" dy="433" grid="1" gridSize="10" guides="1" tooltips="1" connect="1" arrows="1" fold="1" page="1" pageScale="1" pageWidth="827" pageHeight="1169" math="0" shadow="0">
      <root>
        <mxCell id="CkYfWMDdLJQ-8iut0nci-0" />
        <mxCell id="CkYfWMDdLJQ-8iut0nci-1" parent="CkYfWMDdLJQ-8iut0nci-0" />
        <mxCell id="XlgrxYxlze69lPHUpkCy-18" value="" style="html=1;verticalLabelPosition=bottom;labelBackgroundColor=#ffffff;verticalAlign=top;shadow=0;dashed=0;strokeWidth=1;shape=mxgraph.ios7.misc.iphone;strokeColor=#c0c0c0;" vertex="1" parent="CkYfWMDdLJQ-8iut0nci-1">
          <mxGeometry x="120" y="560" width="277" height="530" as="geometry" />
        </mxCell>
        <mxCell id="XlgrxYxlze69lPHUpkCy-19" value="Título da Página" style="text;html=1;resizable=0;autosize=1;align=center;verticalAlign=middle;points=[];fillColor=none;strokeColor=none;rounded=0;fontSize=14;" vertex="1" parent="CkYfWMDdLJQ-8iut0nci-1">
          <mxGeometry x="200" y="650" width="120" height="20" as="geometry" />
        </mxCell>
        <mxCell id="XlgrxYxlze69lPHUpkCy-20" value="" style="rounded=0;whiteSpace=wrap;html=1;fontSize=14;strokeWidth=2;align=center;" vertex="1" parent="CkYfWMDdLJQ-8iut0nci-1">
          <mxGeometry x="140" y="960" width="240" height="50" as="geometry" />
        </mxCell>
        <mxCell id="XlgrxYxlze69lPHUpkCy-21" value="&lt;b&gt;Home&lt;/b&gt;" style="text;html=1;resizable=0;autosize=1;align=center;verticalAlign=middle;points=[];fillColor=none;strokeColor=none;rounded=0;fontSize=14;" vertex="1" parent="CkYfWMDdLJQ-8iut0nci-1">
          <mxGeometry x="160" y="975" width="50" height="20" as="geometry" />
        </mxCell>
        <mxCell id="XlgrxYxlze69lPHUpkCy-22" value="Contatos" style="rounded=0;whiteSpace=wrap;html=1;fontSize=14;strokeWidth=2;align=center;" vertex="1" parent="CkYfWMDdLJQ-8iut0nci-1">
          <mxGeometry x="260" y="960" width="120" height="50" as="geometry" />
        </mxCell>
        <mxCell id="XlgrxYxlze69lPHUpkCy-23" value="" style="rounded=1;whiteSpace=wrap;html=1;fontSize=14;strokeWidth=2;align=center;" vertex="1" parent="CkYfWMDdLJQ-8iut0nci-1">
          <mxGeometry x="140" y="680" width="240" height="10" as="geometry" />
        </mxCell>
        <mxCell id="XlgrxYxlze69lPHUpkCy-24" style="edgeStyle=orthogonalEdgeStyle;rounded=0;orthogonalLoop=1;jettySize=auto;html=1;exitX=0.5;exitY=1;exitDx=0;exitDy=0;fontSize=14;" edge="1" parent="CkYfWMDdLJQ-8iut0nci-1" source="XlgrxYxlze69lPHUpkCy-23" target="XlgrxYxlze69lPHUpkCy-23">
          <mxGeometry relative="1" as="geometry" />
        </mxCell>
        <mxCell id="XlgrxYxlze69lPHUpkCy-27" value="&amp;nbsp; &amp;nbsp; &amp;nbsp; &amp;nbsp; &amp;nbsp; &amp;nbsp; &amp;nbsp; &amp;nbsp; &amp;nbsp; &amp;nbsp;Reportagem 1 - &lt;br&gt;&amp;nbsp; &amp;nbsp; &amp;nbsp; &amp;nbsp;Edição 1" style="text;html=1;resizable=0;autosize=1;align=center;verticalAlign=middle;points=[];fillColor=none;strokeColor=none;rounded=0;fontSize=14;" vertex="1" parent="CkYfWMDdLJQ-8iut0nci-1">
          <mxGeometry x="130" y="710" width="190" height="40" as="geometry" />
        </mxCell>
        <mxCell id="XlgrxYxlze69lPHUpkCy-28" value="Descrição da reportagem" style="text;html=1;resizable=0;autosize=1;align=center;verticalAlign=middle;points=[];fillColor=none;strokeColor=none;rounded=0;fontSize=10;" vertex="1" parent="CkYfWMDdLJQ-8iut0nci-1">
          <mxGeometry x="140" y="860" width="130" height="20" as="geometry" />
        </mxCell>
        <mxCell id="8MHBLRJ6rK1EtUUqXfU8-0" value="Imagem1" style="rounded=0;whiteSpace=wrap;html=1;fontSize=14;strokeWidth=2;align=center;" vertex="1" parent="CkYfWMDdLJQ-8iut0nci-1">
          <mxGeometry x="155" y="770" width="195" height="60" as="geometry" />
        </mxCell>
        <mxCell id="8MHBLRJ6rK1EtUUqXfU8-1" value="Descrição da reportagem" style="text;html=1;resizable=0;autosize=1;align=center;verticalAlign=middle;points=[];fillColor=none;strokeColor=none;rounded=0;fontSize=10;" vertex="1" parent="CkYfWMDdLJQ-8iut0nci-1">
          <mxGeometry x="255" y="860" width="130" height="20" as="geometry" />
        </mxCell>
        <mxCell id="8MHBLRJ6rK1EtUUqXfU8-2" value="Descrição da reportagem" style="text;html=1;resizable=0;autosize=1;align=center;verticalAlign=middle;points=[];fillColor=none;strokeColor=none;rounded=0;fontSize=10;" vertex="1" parent="CkYfWMDdLJQ-8iut0nci-1">
          <mxGeometry x="140" y="880" width="130" height="20" as="geometry" />
        </mxCell>
        <mxCell id="8MHBLRJ6rK1EtUUqXfU8-4" value="Descrição da reportagem" style="text;html=1;resizable=0;autosize=1;align=center;verticalAlign=middle;points=[];fillColor=none;strokeColor=none;rounded=0;fontSize=10;" vertex="1" parent="CkYfWMDdLJQ-8iut0nci-1">
          <mxGeometry x="255" y="880" width="130" height="20" as="geometry" />
        </mxCell>
        <mxCell id="8MHBLRJ6rK1EtUUqXfU8-5" value="Descrição da reportagem" style="text;html=1;resizable=0;autosize=1;align=center;verticalAlign=middle;points=[];fillColor=none;strokeColor=none;rounded=0;fontSize=10;" vertex="1" parent="CkYfWMDdLJQ-8iut0nci-1">
          <mxGeometry x="140" y="900" width="130" height="20" as="geometry" />
        </mxCell>
        <mxCell id="8MHBLRJ6rK1EtUUqXfU8-6" value="Descrição da reportagem" style="text;html=1;resizable=0;autosize=1;align=center;verticalAlign=middle;points=[];fillColor=none;strokeColor=none;rounded=0;fontSize=10;" vertex="1" parent="CkYfWMDdLJQ-8iut0nci-1">
          <mxGeometry x="255" y="900" width="130" height="20" as="geometry" />
        </mxCell>
        <mxCell id="u_hSp-LNHNQhhix7ASP4-0" value="" style="html=1;shadow=0;dashed=0;align=center;verticalAlign=middle;shape=mxgraph.arrows2.arrow;dy=0.6;dx=40;flipH=1;notch=0;" vertex="1" parent="CkYfWMDdLJQ-8iut0nci-1">
          <mxGeometry x="155" y="655" width="15" height="10" as="geometry" />
        </mxCell>
        <mxCell id="u_hSp-LNHNQhhix7ASP4-1" value="" style="line;strokeWidth=2;html=1;" vertex="1" parent="CkYfWMDdLJQ-8iut0nci-1">
          <mxGeometry x="170" y="655" width="10" height="10" as="geometry" />
        </mxCell>
      </root>
    </mxGraphModel>
  </diagram>
  <diagram id="G7OID7Trtw-3QlmkRGTN" name="Page-6">
    <mxGraphModel dx="1181" dy="520" grid="1" gridSize="10" guides="1" tooltips="1" connect="1" arrows="1" fold="1" page="1" pageScale="1" pageWidth="827" pageHeight="1169" math="0" shadow="0">
      <root>
        <mxCell id="g95y_OIh2a1ICf1VB8WE-0" />
        <mxCell id="g95y_OIh2a1ICf1VB8WE-1" parent="g95y_OIh2a1ICf1VB8WE-0" />
        <mxCell id="g95y_OIh2a1ICf1VB8WE-2" value="" style="html=1;verticalLabelPosition=bottom;labelBackgroundColor=#ffffff;verticalAlign=top;shadow=0;dashed=0;strokeWidth=1;shape=mxgraph.ios7.misc.iphone;strokeColor=#c0c0c0;" vertex="1" parent="g95y_OIh2a1ICf1VB8WE-1">
          <mxGeometry x="120" y="560" width="277" height="530" as="geometry" />
        </mxCell>
        <mxCell id="g95y_OIh2a1ICf1VB8WE-3" value="Título da Página" style="text;html=1;resizable=0;autosize=1;align=center;verticalAlign=middle;points=[];fillColor=none;strokeColor=none;rounded=0;fontSize=14;" vertex="1" parent="g95y_OIh2a1ICf1VB8WE-1">
          <mxGeometry x="200" y="650" width="120" height="20" as="geometry" />
        </mxCell>
        <mxCell id="g95y_OIh2a1ICf1VB8WE-4" value="" style="rounded=0;whiteSpace=wrap;html=1;fontSize=14;strokeWidth=2;align=center;" vertex="1" parent="g95y_OIh2a1ICf1VB8WE-1">
          <mxGeometry x="140" y="960" width="240" height="50" as="geometry" />
        </mxCell>
        <mxCell id="g95y_OIh2a1ICf1VB8WE-5" value="Home" style="text;html=1;resizable=0;autosize=1;align=center;verticalAlign=middle;points=[];fillColor=none;strokeColor=none;rounded=0;fontSize=14;" vertex="1" parent="g95y_OIh2a1ICf1VB8WE-1">
          <mxGeometry x="160" y="975" width="50" height="20" as="geometry" />
        </mxCell>
        <mxCell id="g95y_OIh2a1ICf1VB8WE-6" value="&lt;b&gt;Contatos&lt;/b&gt;" style="rounded=0;whiteSpace=wrap;html=1;fontSize=14;strokeWidth=2;align=center;" vertex="1" parent="g95y_OIh2a1ICf1VB8WE-1">
          <mxGeometry x="260" y="960" width="120" height="50" as="geometry" />
        </mxCell>
        <mxCell id="g95y_OIh2a1ICf1VB8WE-7" value="" style="rounded=1;whiteSpace=wrap;html=1;fontSize=14;strokeWidth=2;align=center;" vertex="1" parent="g95y_OIh2a1ICf1VB8WE-1">
          <mxGeometry x="140" y="680" width="240" height="10" as="geometry" />
        </mxCell>
        <mxCell id="g95y_OIh2a1ICf1VB8WE-8" style="edgeStyle=orthogonalEdgeStyle;rounded=0;orthogonalLoop=1;jettySize=auto;html=1;exitX=0.5;exitY=1;exitDx=0;exitDy=0;fontSize=14;" edge="1" parent="g95y_OIh2a1ICf1VB8WE-1" source="g95y_OIh2a1ICf1VB8WE-7" target="g95y_OIh2a1ICf1VB8WE-7">
          <mxGeometry relative="1" as="geometry" />
        </mxCell>
        <mxCell id="g95y_OIh2a1ICf1VB8WE-9" value="Contatos" style="text;html=1;resizable=0;autosize=1;align=center;verticalAlign=middle;points=[];fillColor=none;strokeColor=none;rounded=0;fontSize=14;" vertex="1" parent="g95y_OIh2a1ICf1VB8WE-1">
          <mxGeometry x="140" y="710" width="70" height="20" as="geometry" />
        </mxCell>
        <mxCell id="g95y_OIh2a1ICf1VB8WE-11" value="" style="rounded=0;whiteSpace=wrap;html=1;fontSize=14;strokeWidth=2;align=center;" vertex="1" parent="g95y_OIh2a1ICf1VB8WE-1">
          <mxGeometry x="155" y="740" width="205" height="190" as="geometry" />
        </mxCell>
        <mxCell id="g95y_OIh2a1ICf1VB8WE-17" value="" style="html=1;shadow=0;dashed=0;align=center;verticalAlign=middle;shape=mxgraph.arrows2.arrow;dy=0.6;dx=40;flipH=1;notch=0;" vertex="1" parent="g95y_OIh2a1ICf1VB8WE-1">
          <mxGeometry x="155" y="655" width="15" height="10" as="geometry" />
        </mxCell>
        <mxCell id="g95y_OIh2a1ICf1VB8WE-18" value="" style="line;strokeWidth=2;html=1;" vertex="1" parent="g95y_OIh2a1ICf1VB8WE-1">
          <mxGeometry x="170" y="655" width="10" height="10" as="geometry" />
        </mxCell>
        <mxCell id="g95y_OIh2a1ICf1VB8WE-19" value="" style="line;strokeWidth=2;html=1;" vertex="1" parent="g95y_OIh2a1ICf1VB8WE-1">
          <mxGeometry x="155" y="770" width="205" height="10" as="geometry" />
        </mxCell>
        <mxCell id="g95y_OIh2a1ICf1VB8WE-20" value="" style="line;strokeWidth=2;html=1;" vertex="1" parent="g95y_OIh2a1ICf1VB8WE-1">
          <mxGeometry x="155" y="800" width="205" height="10" as="geometry" />
        </mxCell>
        <mxCell id="g95y_OIh2a1ICf1VB8WE-21" value="" style="line;strokeWidth=2;html=1;" vertex="1" parent="g95y_OIh2a1ICf1VB8WE-1">
          <mxGeometry x="155" y="830" width="205" height="10" as="geometry" />
        </mxCell>
        <mxCell id="g95y_OIh2a1ICf1VB8WE-22" value="" style="line;strokeWidth=2;html=1;" vertex="1" parent="g95y_OIh2a1ICf1VB8WE-1">
          <mxGeometry x="155" y="860" width="205" height="10" as="geometry" />
        </mxCell>
        <mxCell id="g95y_OIh2a1ICf1VB8WE-23" value="" style="line;strokeWidth=2;html=1;" vertex="1" parent="g95y_OIh2a1ICf1VB8WE-1">
          <mxGeometry x="155" y="890" width="205" height="10" as="geometry" />
        </mxCell>
        <mxCell id="g95y_OIh2a1ICf1VB8WE-24" value="Contato1&amp;nbsp; &amp;nbsp; &amp;nbsp; &amp;nbsp; &amp;nbsp; &amp;nbsp; &amp;nbsp; &amp;nbsp; &amp;nbsp; &amp;nbsp; &amp;nbsp; &amp;nbsp; &amp;nbsp; &amp;nbsp; Número1" style="text;html=1;align=center;verticalAlign=middle;resizable=0;points=[];autosize=1;strokeColor=none;fillColor=none;" vertex="1" parent="g95y_OIh2a1ICf1VB8WE-1">
          <mxGeometry x="155" y="750" width="210" height="20" as="geometry" />
        </mxCell>
        <mxCell id="g95y_OIh2a1ICf1VB8WE-25" value="Contato1&amp;nbsp; &amp;nbsp; &amp;nbsp; &amp;nbsp; &amp;nbsp; &amp;nbsp; &amp;nbsp; &amp;nbsp; &amp;nbsp; &amp;nbsp; &amp;nbsp; &amp;nbsp; &amp;nbsp; &amp;nbsp; Número1" style="text;html=1;align=center;verticalAlign=middle;resizable=0;points=[];autosize=1;strokeColor=none;fillColor=none;" vertex="1" parent="g95y_OIh2a1ICf1VB8WE-1">
          <mxGeometry x="155" y="780" width="210" height="20" as="geometry" />
        </mxCell>
        <mxCell id="g95y_OIh2a1ICf1VB8WE-26" value="Contato1&amp;nbsp; &amp;nbsp; &amp;nbsp; &amp;nbsp; &amp;nbsp; &amp;nbsp; &amp;nbsp; &amp;nbsp; &amp;nbsp; &amp;nbsp; &amp;nbsp; &amp;nbsp; &amp;nbsp; &amp;nbsp; Número1" style="text;html=1;align=center;verticalAlign=middle;resizable=0;points=[];autosize=1;strokeColor=none;fillColor=none;" vertex="1" parent="g95y_OIh2a1ICf1VB8WE-1">
          <mxGeometry x="153.5" y="810" width="210" height="20" as="geometry" />
        </mxCell>
        <mxCell id="g95y_OIh2a1ICf1VB8WE-27" value="Contato1&amp;nbsp; &amp;nbsp; &amp;nbsp; &amp;nbsp; &amp;nbsp; &amp;nbsp; &amp;nbsp; &amp;nbsp; &amp;nbsp; &amp;nbsp; &amp;nbsp; &amp;nbsp; &amp;nbsp; &amp;nbsp; Número1" style="text;html=1;align=center;verticalAlign=middle;resizable=0;points=[];autosize=1;strokeColor=none;fillColor=none;" vertex="1" parent="g95y_OIh2a1ICf1VB8WE-1">
          <mxGeometry x="153.5" y="840" width="210" height="20" as="geometry" />
        </mxCell>
        <mxCell id="g95y_OIh2a1ICf1VB8WE-28" value="Contato1&amp;nbsp; &amp;nbsp; &amp;nbsp; &amp;nbsp; &amp;nbsp; &amp;nbsp; &amp;nbsp; &amp;nbsp; &amp;nbsp; &amp;nbsp; &amp;nbsp; &amp;nbsp; &amp;nbsp; &amp;nbsp; Número1" style="text;html=1;align=center;verticalAlign=middle;resizable=0;points=[];autosize=1;strokeColor=none;fillColor=none;" vertex="1" parent="g95y_OIh2a1ICf1VB8WE-1">
          <mxGeometry x="153.5" y="870" width="210" height="20" as="geometry" />
        </mxCell>
        <mxCell id="g95y_OIh2a1ICf1VB8WE-29" value="Contato1&amp;nbsp; &amp;nbsp; &amp;nbsp; &amp;nbsp; &amp;nbsp; &amp;nbsp; &amp;nbsp; &amp;nbsp; &amp;nbsp; &amp;nbsp; &amp;nbsp; &amp;nbsp; &amp;nbsp; &amp;nbsp; Número1" style="text;html=1;align=center;verticalAlign=middle;resizable=0;points=[];autosize=1;strokeColor=none;fillColor=none;" vertex="1" parent="g95y_OIh2a1ICf1VB8WE-1">
          <mxGeometry x="155" y="900" width="210" height="20" as="geometry" />
        </mxCell>
      </root>
    </mxGraphModel>
  </diagram>
</mxfile>
